G04 Layer: TopSolderMaskLayer*
G04 EasyEDA v6.4.7, 2020-11-21T23:36:06--8:00*
G04 5ff2efe16aa84f8f9e73a5c42d6c7546,4c52adb9b7084d04897e24a6e005c639,00*
G04 Gerber Generator version 0.2*
G04 Scale: 100 percent, Rotated: No, Reflected: No *
G04 Dimensions in inches *
G04 leading zeros omitted , absolute positions ,2 integer and 4 decimal *
%FSLAX24Y24*%
%MOIN*%
G90*
D02*

%ADD23C,0.082000*%

%LPD*%
G36*
G01X3578Y5388D02*
G01X3578Y5862D01*
G01X4090Y5862D01*
G01X4090Y5388D01*
G01X3578Y5388D01*
G37*
G36*
G01X2909Y5388D02*
G01X2909Y5862D01*
G01X3422Y5862D01*
G01X3422Y5388D01*
G01X2909Y5388D01*
G37*
G54D23*
G01X3375Y9125D03*
G01X4375Y9125D03*
G01X5375Y9125D03*
G01X6375Y9125D03*
G01X7375Y9125D03*
G36*
G01X5085Y11660D02*
G01X5085Y12000D01*
G01X5665Y12000D01*
G01X5665Y11660D01*
G01X5085Y11660D01*
G37*
G36*
G01X5085Y11250D02*
G01X5085Y11590D01*
G01X5665Y11590D01*
G01X5665Y11250D01*
G01X5085Y11250D01*
G37*
G36*
G01X4085Y11660D02*
G01X4085Y12000D01*
G01X4665Y12000D01*
G01X4665Y11660D01*
G01X4085Y11660D01*
G37*
G36*
G01X4085Y11250D02*
G01X4085Y11590D01*
G01X4665Y11590D01*
G01X4665Y11250D01*
G01X4085Y11250D01*
G37*
G36*
G01X6085Y11660D02*
G01X6085Y12000D01*
G01X6665Y12000D01*
G01X6665Y11660D01*
G01X6085Y11660D01*
G37*
G36*
G01X6085Y11250D02*
G01X6085Y11590D01*
G01X6665Y11590D01*
G01X6665Y11250D01*
G01X6085Y11250D01*
G37*
G36*
G01X5138Y9909D02*
G01X5138Y10422D01*
G01X5612Y10422D01*
G01X5612Y9909D01*
G01X5138Y9909D01*
G37*
G36*
G01X5138Y10578D02*
G01X5138Y11091D01*
G01X5612Y11091D01*
G01X5612Y10578D01*
G01X5138Y10578D01*
G37*
G36*
G01X4138Y9909D02*
G01X4138Y10422D01*
G01X4612Y10422D01*
G01X4612Y9909D01*
G01X4138Y9909D01*
G37*
G36*
G01X4138Y10578D02*
G01X4138Y11091D01*
G01X4612Y11091D01*
G01X4612Y10578D01*
G01X4138Y10578D01*
G37*
G36*
G01X6138Y9909D02*
G01X6138Y10422D01*
G01X6612Y10422D01*
G01X6612Y9909D01*
G01X6138Y9909D01*
G37*
G36*
G01X6138Y10578D02*
G01X6138Y11091D01*
G01X6612Y11091D01*
G01X6612Y10578D01*
G01X6138Y10578D01*
G37*
G36*
G01X6290Y965D02*
G01X6290Y1285D01*
G01X7159Y1285D01*
G01X7159Y965D01*
G01X6290Y965D01*
G37*
G36*
G01X6290Y1465D02*
G01X6290Y1785D01*
G01X7159Y1785D01*
G01X7159Y1465D01*
G01X6290Y1465D01*
G37*
G36*
G01X6290Y1964D02*
G01X6290Y2285D01*
G01X7159Y2285D01*
G01X7159Y1964D01*
G01X6290Y1964D01*
G37*
G36*
G01X6290Y2465D02*
G01X6290Y2785D01*
G01X7159Y2785D01*
G01X7159Y2465D01*
G01X6290Y2465D01*
G37*
G36*
G01X6290Y2965D02*
G01X6290Y3285D01*
G01X7159Y3285D01*
G01X7159Y2965D01*
G01X6290Y2965D01*
G37*
G36*
G01X6290Y3465D02*
G01X6290Y3785D01*
G01X7159Y3785D01*
G01X7159Y3465D01*
G01X6290Y3465D01*
G37*
G36*
G01X6290Y3965D02*
G01X6290Y4285D01*
G01X7159Y4285D01*
G01X7159Y3965D01*
G01X6290Y3965D01*
G37*
G36*
G01X6290Y4465D02*
G01X6290Y4785D01*
G01X7159Y4785D01*
G01X7159Y4465D01*
G01X6290Y4465D01*
G37*
G36*
G01X2590Y4465D02*
G01X2590Y4785D01*
G01X3460Y4785D01*
G01X3460Y4465D01*
G01X2590Y4465D01*
G37*
G36*
G01X2590Y3965D02*
G01X2590Y4285D01*
G01X3460Y4285D01*
G01X3460Y3965D01*
G01X2590Y3965D01*
G37*
G36*
G01X2590Y3465D02*
G01X2590Y3785D01*
G01X3460Y3785D01*
G01X3460Y3465D01*
G01X2590Y3465D01*
G37*
G36*
G01X2590Y2965D02*
G01X2590Y3285D01*
G01X3460Y3285D01*
G01X3460Y2965D01*
G01X2590Y2965D01*
G37*
G36*
G01X2590Y2465D02*
G01X2590Y2785D01*
G01X3460Y2785D01*
G01X3460Y2465D01*
G01X2590Y2465D01*
G37*
G36*
G01X2590Y1964D02*
G01X2590Y2285D01*
G01X3460Y2285D01*
G01X3460Y1964D01*
G01X2590Y1964D01*
G37*
G36*
G01X2590Y1465D02*
G01X2590Y1785D01*
G01X3460Y1785D01*
G01X3460Y1465D01*
G01X2590Y1465D01*
G37*
G36*
G01X2590Y965D02*
G01X2590Y1285D01*
G01X3460Y1285D01*
G01X3460Y965D01*
G01X2590Y965D01*
G37*
G36*
G01X1710Y1910D02*
G01X1710Y2250D01*
G01X2290Y2250D01*
G01X2290Y1910D01*
G01X1710Y1910D01*
G37*
G36*
G01X1710Y1500D02*
G01X1710Y1839D01*
G01X2290Y1839D01*
G01X2290Y1500D01*
G01X1710Y1500D01*
G37*
G36*
G01X3578Y6388D02*
G01X3578Y6862D01*
G01X4090Y6862D01*
G01X4090Y6388D01*
G01X3578Y6388D01*
G37*
G36*
G01X2909Y6388D02*
G01X2909Y6862D01*
G01X3422Y6862D01*
G01X3422Y6388D01*
G01X2909Y6388D01*
G37*
G36*
G01X2383Y7395D02*
G01X2383Y8105D01*
G01X3014Y8105D01*
G01X3014Y7395D01*
G01X2383Y7395D01*
G37*
G36*
G01X3486Y7395D02*
G01X3486Y8105D01*
G01X4117Y8105D01*
G01X4117Y7395D01*
G01X3486Y7395D01*
G37*
M00*
M02*
