G04 Layer: TopPasteMaskLayer*
G04 EasyEDA v6.4.7, 2020-11-21T23:36:06--8:00*
G04 5ff2efe16aa84f8f9e73a5c42d6c7546,4c52adb9b7084d04897e24a6e005c639,00*
G04 Gerber Generator version 0.2*
G04 Scale: 100 percent, Rotated: No, Reflected: No *
G04 Dimensions in inches *
G04 leading zeros omitted , absolute positions ,2 integer and 4 decimal *
%FSLAX24Y24*%
%MOIN*%
G90*
D02*

%ADD15R,0.043310X0.039370*%
%ADD16R,0.039370X0.043310*%
%ADD18R,0.055120X0.062990*%

%LPD*%
G54D15*
G01X3834Y5625D03*
G01X3165Y5625D03*
G36*
G01X5625Y11960D02*
G01X5625Y11700D01*
G01X5125Y11700D01*
G01X5125Y11960D01*
G01X5625Y11960D01*
G37*
G36*
G01X5625Y11550D02*
G01X5625Y11290D01*
G01X5125Y11290D01*
G01X5125Y11550D01*
G01X5625Y11550D01*
G37*
G36*
G01X4625Y11960D02*
G01X4625Y11700D01*
G01X4125Y11700D01*
G01X4125Y11960D01*
G01X4625Y11960D01*
G37*
G36*
G01X4625Y11550D02*
G01X4625Y11290D01*
G01X4125Y11290D01*
G01X4125Y11550D01*
G01X4625Y11550D01*
G37*
G36*
G01X6625Y11960D02*
G01X6625Y11700D01*
G01X6125Y11700D01*
G01X6125Y11960D01*
G01X6625Y11960D01*
G37*
G36*
G01X6625Y11550D02*
G01X6625Y11290D01*
G01X6125Y11290D01*
G01X6125Y11550D01*
G01X6625Y11550D01*
G37*
G54D16*
G01X5375Y10165D03*
G01X5375Y10834D03*
G01X4375Y10165D03*
G01X4375Y10834D03*
G01X6375Y10165D03*
G01X6375Y10834D03*
G36*
G01X6330Y1245D02*
G01X7120Y1245D01*
G01X7120Y1005D01*
G01X6330Y1005D01*
G01X6330Y1245D01*
G37*
G36*
G01X6330Y1745D02*
G01X7120Y1745D01*
G01X7120Y1505D01*
G01X6330Y1505D01*
G01X6330Y1745D01*
G37*
G36*
G01X6330Y2245D02*
G01X7120Y2245D01*
G01X7120Y2005D01*
G01X6330Y2005D01*
G01X6330Y2245D01*
G37*
G36*
G01X6330Y2745D02*
G01X7120Y2745D01*
G01X7120Y2505D01*
G01X6330Y2505D01*
G01X6330Y2745D01*
G37*
G36*
G01X6330Y3245D02*
G01X7120Y3245D01*
G01X7120Y3005D01*
G01X6330Y3005D01*
G01X6330Y3245D01*
G37*
G36*
G01X6330Y3745D02*
G01X7120Y3745D01*
G01X7120Y3504D01*
G01X6330Y3504D01*
G01X6330Y3745D01*
G37*
G36*
G01X6330Y4245D02*
G01X7120Y4245D01*
G01X7120Y4004D01*
G01X6330Y4004D01*
G01X6330Y4245D01*
G37*
G36*
G01X6330Y4745D02*
G01X7120Y4745D01*
G01X7120Y4505D01*
G01X6330Y4505D01*
G01X6330Y4745D01*
G37*
G36*
G01X2630Y4745D02*
G01X3420Y4745D01*
G01X3420Y4505D01*
G01X2630Y4505D01*
G01X2630Y4745D01*
G37*
G36*
G01X2630Y4245D02*
G01X3420Y4245D01*
G01X3420Y4004D01*
G01X2630Y4004D01*
G01X2630Y4245D01*
G37*
G36*
G01X2630Y3745D02*
G01X3420Y3745D01*
G01X3420Y3504D01*
G01X2630Y3504D01*
G01X2630Y3745D01*
G37*
G36*
G01X2630Y3245D02*
G01X3420Y3245D01*
G01X3420Y3005D01*
G01X2630Y3005D01*
G01X2630Y3245D01*
G37*
G36*
G01X2630Y2745D02*
G01X3420Y2745D01*
G01X3420Y2505D01*
G01X2630Y2505D01*
G01X2630Y2745D01*
G37*
G36*
G01X2630Y2245D02*
G01X3420Y2245D01*
G01X3420Y2005D01*
G01X2630Y2005D01*
G01X2630Y2245D01*
G37*
G36*
G01X2630Y1745D02*
G01X3420Y1745D01*
G01X3420Y1505D01*
G01X2630Y1505D01*
G01X2630Y1745D01*
G37*
G36*
G01X2630Y1245D02*
G01X3420Y1245D01*
G01X3420Y1005D01*
G01X2630Y1005D01*
G01X2630Y1245D01*
G37*
G36*
G01X2250Y2210D02*
G01X2250Y1950D01*
G01X1750Y1950D01*
G01X1750Y2210D01*
G01X2250Y2210D01*
G37*
G36*
G01X2250Y1800D02*
G01X2250Y1540D01*
G01X1750Y1540D01*
G01X1750Y1800D01*
G01X2250Y1800D01*
G37*
G54D15*
G01X3834Y6625D03*
G01X3165Y6625D03*
G54D18*
G01X2698Y7750D03*
G01X3801Y7750D03*
M00*
M02*
