<svg version="1.1" xmlns="http://www.w3.org/2000/svg" xmlns:xlink="http://www.w3.org/1999/xlink" stroke-linecap="round" stroke-linejoin="round" stroke-width="0" fill-rule="evenodd" clip-rule="evenodd" id="Pj2r8Wo9htyvbVQzJuKR_bottom" viewBox="18 18 1000 1250" width="1in" height="1.25in" class="w-100 h-100"><defs><style>.Pj2r8Wo9htyvbVQzJuKR_fr4 {color: #666666;}
.Pj2r8Wo9htyvbVQzJuKR_cu {color: #cccccc;}
.Pj2r8Wo9htyvbVQzJuKR_cf {color: #cc9933;}
.Pj2r8Wo9htyvbVQzJuKR_sm {color: #004200; opacity: 0.75;}
.Pj2r8Wo9htyvbVQzJuKR_ss {color: #ffffff;}
.Pj2r8Wo9htyvbVQzJuKR_sp {color: #999999;}
.Pj2r8Wo9htyvbVQzJuKR_out {color: #000000;}</style><circle cx="0" cy="0" r="41" id="DtKD-WqQcH15BNnBjaak_pad-10"/><circle cx="0" cy="0" r="69" id="DtKD-WqQcH15BNnBjaak_pad-11"/><circle cx="0" cy="0" r="29" id="DtKD-WqQcH15BNnBjaak_pad-12"/><circle cx="0" cy="0" r="37" id="kRX4Za_v4T9E0y87F4eL_pad-10"/><circle cx="0" cy="0" r="25" id="kRX4Za_v4T9E0y87F4eL_pad-12"/><g id="Pj2r8Wo9htyvbVQzJuKR_bottom_soldermask"><use xlink:href="#DtKD-WqQcH15BNnBjaak_pad-10" x="355.5" y="930.5"/><use xlink:href="#DtKD-WqQcH15BNnBjaak_pad-10" x="455.5" y="930.5"/><use xlink:href="#DtKD-WqQcH15BNnBjaak_pad-10" x="555.5" y="930.5"/><use xlink:href="#DtKD-WqQcH15BNnBjaak_pad-10" x="655.5" y="930.5"/><use xlink:href="#DtKD-WqQcH15BNnBjaak_pad-10" x="755.5" y="930.5"/><use xlink:href="#DtKD-WqQcH15BNnBjaak_pad-11" x="830.5" y="1093"/><use xlink:href="#DtKD-WqQcH15BNnBjaak_pad-11" x="205.5" y="1093"/><use xlink:href="#DtKD-WqQcH15BNnBjaak_pad-12" x="218" y="430.5"/><use xlink:href="#DtKD-WqQcH15BNnBjaak_pad-12" x="218" y="580.5"/><use xlink:href="#DtKD-WqQcH15BNnBjaak_pad-12" x="218" y="680.5"/><use xlink:href="#DtKD-WqQcH15BNnBjaak_pad-12" x="193" y="793"/></g><g id="Pj2r8Wo9htyvbVQzJuKR_bottom_copper"><use xlink:href="#kRX4Za_v4T9E0y87F4eL_pad-10" x="355.5" y="930.5"/><use xlink:href="#kRX4Za_v4T9E0y87F4eL_pad-10" x="455.5" y="930.5"/><use xlink:href="#kRX4Za_v4T9E0y87F4eL_pad-10" x="555.5" y="930.5"/><use xlink:href="#kRX4Za_v4T9E0y87F4eL_pad-10" x="655.5" y="930.5"/><use xlink:href="#kRX4Za_v4T9E0y87F4eL_pad-10" x="755.5" y="930.5"/><path d="M 66 1220 66 66 970 66 970 1220 66 1220 M 66 1216.88 970 1216.88 M 970 1200.9 864.42 1200.9 M 874.12 1198.3 845.38 1206 815.62 1206 786.88 1198.3 761.12 1183.42 740.08 1162.38 725.2 1136.62 717.5 1107.88 717.5 1078.12 725.2 1049.38 740.08 1023.62 761.12 1002.58 786.88 987.7 815.62 980 845.38 980 874.12 987.7 899.88 1002.58 920.92 1023.62 935.8 1049.38 943.5 1078.12 943.5 1107.88 935.8 1136.62 920.92 1162.38 899.88 1183.42 874.12 1198.3 M 897.3 1184.91 970 1184.91 M 970 1168.93 914.38 1168.93 M 926.37 1152.94 970 1152.94 M 970 1136.96 935.6 1136.96 M 939.99 1120.97 970 1120.97 M 970 1104.99 943.5 1104.99 M 943.5 1089 970 1089 M 970 1073.02 942.13 1073.02 M 937.85 1057.03 970 1057.03 M 970 1041.05 930.99 1041.05 M 921.76 1025.06 970 1025.06 M 970 1009.08 906.38 1009.08 M 883.45 993.09 970 993.09 M 970 977.11 784.92 977.11 M 784.33 977.54 776.61 981.47 768.38 984.15 759.83 985.5 757.5 985.5 757.5 932.5 753.5 932.5 753.5 985.5 751.17 985.5 742.62 984.15 734.39 981.47 726.67 977.54 719.67 972.45 713.55 966.33 708.46 959.33 704.53 951.61 704.35 951.06 700.43 960.52 685.52 975.43 666.04 983.5 644.96 983.5 625.48 975.43 610.57 960.52 605.5 948.28 600.43 960.52 585.52 975.43 566.04 983.5 544.96 983.5 525.48 975.43 510.57 960.52 505.5 948.28 500.43 960.52 485.52 975.43 466.04 983.5 444.96 983.5 425.48 975.43 410.57 960.52 405.5 948.28 400.43 960.52 385.52 975.43 366.04 983.5 344.96 983.5 325.48 975.43 310.57 960.52 302.5 941.04 302.5 919.96 310.57 900.48 325.48 885.57 344.96 877.5 366.04 877.5 385.52 885.57 400.43 900.48 405.5 912.72 410.57 900.48 425.48 885.57 444.96 877.5 466.04 877.5 485.52 885.57 500.43 900.48 505.5 912.72 510.57 900.48 525.48 885.57 544.96 877.5 566.04 877.5 585.52 885.57 600.43 900.48 605.5 912.72 610.57 900.48 625.48 885.57 644.96 877.5 666.04 877.5 685.52 885.57 700.43 900.48 704.35 909.94 704.53 909.39 708.46 901.67 713.55 894.67 719.67 888.55 726.67 883.46 734.39 879.53 742.62 876.85 751.17 875.5 753.5 875.5 753.5 928.5 757.5 928.5 757.5 932.5 810.5 932.5 810.5 934.83 809.15 943.38 806.47 951.61 802.54 959.33 797.45 966.33 791.33 972.45 784.33 977.54 M 777.55 993.09 258.45 993.09 M 249.12 987.7 274.88 1002.58 295.92 1023.62 310.8 1049.38 318.5 1078.12 318.5 1107.88 310.8 1136.62 295.92 1162.38 274.88 1183.42 249.12 1198.3 220.38 1206 190.62 1206 161.88 1198.3 136.12 1183.42 115.08 1162.38 100.2 1136.62 92.5 1107.88 92.5 1078.12 100.2 1049.38 115.08 1023.62 136.12 1002.58 161.88 987.7 190.62 980 220.38 980 249.12 987.7 M 281.38 1009.08 754.62 1009.08 M 739.24 1025.06 296.76 1025.06 M 305.99 1041.05 730.01 1041.05 M 723.15 1057.03 312.85 1057.03 M 317.13 1073.02 718.87 1073.02 M 717.5 1089 318.5 1089 M 318.5 1104.99 717.5 1104.99 M 721.01 1120.97 314.99 1120.97 M 310.6 1136.96 725.4 1136.96 M 734.63 1152.94 301.37 1152.94 M 289.38 1168.93 746.62 1168.93 M 763.7 1184.91 272.3 1184.91 M 239.42 1200.9 796.58 1200.9 M 757.5 977.11 753.5 977.11 M 753.5 961.12 757.5 961.12 M 757.5 945.14 753.5 945.14 M 757.5 929.15 970 929.15 M 970 913.17 807.7 913.17 M 806.47 909.39 809.15 917.62 810.5 926.17 810.5 928.5 757.5 928.5 757.5 875.5 759.83 875.5 768.38 876.85 776.61 879.53 784.33 883.46 791.33 888.55 797.45 894.67 802.54 901.67 806.47 909.39 M 799.28 897.18 970 897.18 M 970 881.2 779.88 881.2 M 757.5 881.2 753.5 881.2 M 753.5 897.18 757.5 897.18 M 757.5 913.17 753.5 913.17 M 731.12 881.2 674.97 881.2 M 697.13 897.18 711.72 897.18 M 709.76 961.12 699.83 961.12 M 681.48 977.11 726.08 977.11 M 801.24 961.12 970 961.12 M 970 945.14 808.57 945.14 M 970 865.21 66 865.21 M 66 849.23 970 849.23 M 970 833.24 66 833.24 M 66 817.26 970 817.26 M 970 801.27 66 801.27 M 66 785.29 970 785.29 M 970 769.3 66 769.3 M 66 753.32 970 753.32 M 970 737.33 66 737.33 M 66 721.34 970 721.34 M 970 705.36 66 705.36 M 66 689.37 970 689.37 M 970 673.39 66 673.39 M 66 657.4 970 657.4 M 970 641.42 66 641.42 M 66 625.43 970 625.43 M 970 609.45 66 609.45 M 66 593.46 970 593.46 M 970 577.48 66 577.48 M 66 561.49 970 561.49 M 970 545.51 66 545.51 M 66 529.52 970 529.52 M 970 513.54 66 513.54 M 66 497.55 970 497.55 M 970 481.57 66 481.57 M 66 465.58 970 465.58 M 970 449.6 66 449.6 M 66 433.61 970 433.61 M 970 417.63 66 417.63 M 66 401.64 970 401.64 M 970 385.66 66 385.66 M 66 369.67 970 369.67 M 970 353.69 66 353.69 M 66 337.7 970 337.7 M 970 321.72 66 321.72 M 66 305.73 970 305.73 M 970 289.75 66 289.75 M 66 273.76 970 273.76 M 970 257.78 66 257.78 M 66 241.79 970 241.79 M 970 225.81 66 225.81 M 66 209.82 970 209.82 M 970 193.84 66 193.84 M 66 177.85 970 177.85 M 970 161.87 66 161.87 M 66 145.88 970 145.88 M 970 129.9 66 129.9 M 66 113.91 970 113.91 M 970 97.93 66 97.93 M 66 81.94 970 81.94 M 636.03 881.2 574.97 881.2 M 597.13 897.18 613.87 897.18 M 611.17 961.12 599.83 961.12 M 581.48 977.11 629.52 977.11 M 529.52 977.11 481.48 977.11 M 499.83 961.12 511.17 961.12 M 513.87 897.18 497.13 897.18 M 474.97 881.2 536.03 881.2 M 436.03 881.2 374.97 881.2 M 397.13 897.18 413.87 897.18 M 411.17 961.12 399.83 961.12 M 381.48 977.11 429.52 977.11 M 336.03 881.2 66 881.2 M 66 897.18 313.87 897.18 M 305.31 913.17 66 913.17 M 66 929.15 302.5 929.15 M 304.2 945.14 66 945.14 M 66 961.12 311.17 961.12 M 329.52 977.11 66 977.11 M 66 993.09 152.55 993.09 M 129.62 1009.08 66 1009.08 M 66 1025.06 114.24 1025.06 M 105.01 1041.05 66 1041.05 M 66 1057.03 98.15 1057.03 M 93.87 1073.02 66 1073.02 M 66 1089 92.5 1089 M 92.5 1104.99 66 1104.99 M 66 1120.97 96.01 1120.97 M 100.4 1136.96 66 1136.96 M 66 1152.94 109.63 1152.94 M 121.62 1168.93 66 1168.93 M 66 1184.91 138.7 1184.91 M 171.58 1200.9 66 1200.9" fill="none" stroke-width="16"/><use xlink:href="#kRX4Za_v4T9E0y87F4eL_pad-12" x="193" y="793"/><use xlink:href="#kRX4Za_v4T9E0y87F4eL_pad-12" x="218" y="680.5"/><use xlink:href="#kRX4Za_v4T9E0y87F4eL_pad-12" x="218" y="580.5"/><use xlink:href="#kRX4Za_v4T9E0y87F4eL_pad-12" x="218" y="430.5"/></g><mask id="Pj2r8Wo9htyvbVQzJuKR_bottom_mech-mask"><g fill="#000" stroke="#000"><rect x="58" y="58" width="920" height="1170" fill="#fff"/></g></mask><mask id="Pj2r8Wo9htyvbVQzJuKR_bottom_cf-mask"><g fill="#fff" stroke="#fff"><use xlink:href="#Pj2r8Wo9htyvbVQzJuKR_bottom_soldermask"/></g></mask><mask id="Pj2r8Wo9htyvbVQzJuKR_bottom_sm-mask"><g fill="#000" stroke="#000"><rect x="58" y="58" width="920" height="1170" fill="#fff"/><use xlink:href="#Pj2r8Wo9htyvbVQzJuKR_bottom_soldermask"/></g></mask></defs><g transform="translate(0,1286) scale(1,-1)"><g mask="url(#Pj2r8Wo9htyvbVQzJuKR_bottom_mech-mask)" transform="translate(1036,0) scale(-1,1)"><rect x="58" y="58" width="920" height="1170" fill="currentColor" class="Pj2r8Wo9htyvbVQzJuKR_fr4"/><use xlink:href="#Pj2r8Wo9htyvbVQzJuKR_bottom_copper" fill="currentColor" stroke="currentColor" class="Pj2r8Wo9htyvbVQzJuKR_cu"/><use xlink:href="#Pj2r8Wo9htyvbVQzJuKR_bottom_copper" fill="currentColor" stroke="currentColor" class="Pj2r8Wo9htyvbVQzJuKR_cf" mask="url(#Pj2r8Wo9htyvbVQzJuKR_bottom_cf-mask)"/><g mask="url(#Pj2r8Wo9htyvbVQzJuKR_bottom_sm-mask)"><rect x="58" y="58" width="920" height="1170" fill="currentColor" class="Pj2r8Wo9htyvbVQzJuKR_sm"/></g></g></g></svg>