<svg version="1.1" xmlns="http://www.w3.org/2000/svg" xmlns:xlink="http://www.w3.org/1999/xlink" stroke-linecap="round" stroke-linejoin="round" stroke-width="0" fill-rule="evenodd" width="0.7740349999999999in" height="1.0955in" viewBox="168 118.5 774.035 1095.5" id="jFfbUCjRCprYlE1g8kBb"><defs><rect x="-21.655" y="-19.685" width="43.31" height="39.37" id="jFfbUCjRCprYlE1g8kBb_pad-10"/><circle cx="0" cy="0" r="37" id="jFfbUCjRCprYlE1g8kBb_pad-11"/><rect x="-25" y="-13" width="50" height="26" id="jFfbUCjRCprYlE1g8kBb_pad-12"/><rect x="-19.685" y="-21.655" width="39.37" height="43.31" id="jFfbUCjRCprYlE1g8kBb_pad-14"/><rect x="-39.5" y="-12" width="79" height="24" id="jFfbUCjRCprYlE1g8kBb_pad-15"/><rect x="-27.56" y="-31.495" width="55.12" height="62.99" id="jFfbUCjRCprYlE1g8kBb_pad-16"/><circle cx="0" cy="0" r="25" id="jFfbUCjRCprYlE1g8kBb_pad-19"/></defs><g transform="translate(0,1332.5) scale(1,-1)" fill="currentColor" stroke="currentColor"><use xlink:href="#jFfbUCjRCprYlE1g8kBb_pad-10" x="334.54" y="580.5"/><use xlink:href="#jFfbUCjRCprYlE1g8kBb_pad-10" x="401.46" y="580.5"/><use xlink:href="#jFfbUCjRCprYlE1g8kBb_pad-10" x="401.46" y="680.5"/><use xlink:href="#jFfbUCjRCprYlE1g8kBb_pad-10" x="334.54" y="680.5"/><use xlink:href="#jFfbUCjRCprYlE1g8kBb_pad-11" x="355.5" y="930.5"/><use xlink:href="#jFfbUCjRCprYlE1g8kBb_pad-11" x="455.5" y="930.5"/><use xlink:href="#jFfbUCjRCprYlE1g8kBb_pad-11" x="555.5" y="930.5"/><use xlink:href="#jFfbUCjRCprYlE1g8kBb_pad-11" x="655.5" y="930.5"/><use xlink:href="#jFfbUCjRCprYlE1g8kBb_pad-11" x="755.5" y="930.5"/><use xlink:href="#jFfbUCjRCprYlE1g8kBb_pad-12" x="655.5" y="1160"/><use xlink:href="#jFfbUCjRCprYlE1g8kBb_pad-12" x="655.5" y="1201"/><use xlink:href="#jFfbUCjRCprYlE1g8kBb_pad-12" x="555.5" y="1201"/><use xlink:href="#jFfbUCjRCprYlE1g8kBb_pad-12" x="555.5" y="1160"/><use xlink:href="#jFfbUCjRCprYlE1g8kBb_pad-12" x="455.5" y="1160"/><use xlink:href="#jFfbUCjRCprYlE1g8kBb_pad-12" x="455.5" y="1201"/><use xlink:href="#jFfbUCjRCprYlE1g8kBb_pad-12" x="218" y="226"/><use xlink:href="#jFfbUCjRCprYlE1g8kBb_pad-12" x="218" y="185"/><path d="M 213 198.25 213 233 223 233 223 198.25 213 198.25 M 213 198.46 223 198.46 M 223 198.95 213 198.95 M 213 199.43 223 199.43 M 223 199.92 213 199.92 M 213 200.4 223 200.4 M 223 200.89 213 200.89 M 213 201.37 223 201.37 M 223 201.86 213 201.86 M 213 202.34 223 202.34 M 223 202.83 213 202.83 M 213 203.31 223 203.31 M 223 203.8 213 203.8 M 213 204.28 223 204.28 M 223 204.77 213 204.77 M 213 205.25 223 205.25 M 223 205.74 213 205.74 M 213 206.22 223 206.22 M 223 206.71 213 206.71 M 213 207.19 223 207.19 M 223 207.68 213 207.68 M 213 208.16 223 208.16 M 223 208.65 213 208.65 M 213 209.13 223 209.13 M 223 209.62 213 209.62 M 213 210.1 223 210.1 M 223 210.59 213 210.59 M 213 211.08 223 211.08 M 223 211.56 213 211.56 M 213 212.05 223 212.05 M 223 212.53 213 212.53 M 213 213.02 223 213.02 M 223 213.5 213 213.5 M 213 213.99 223 213.99 M 223 214.47 213 214.47 M 213 214.96 223 214.96 M 223 215.44 213 215.44 M 213 215.93 223 215.93 M 223 216.41 213 216.41 M 213 216.9 223 216.9 M 223 217.38 213 217.38 M 213 217.87 223 217.87 M 223 218.35 213 218.35 M 213 218.84 223 218.84 M 223 219.32 213 219.32 M 213 219.81 223 219.81 M 223 220.29 213 220.29 M 213 220.78 223 220.78 M 223 221.26 213 221.26 M 213 221.75 223 221.75 M 223 222.23 213 222.23 M 213 222.72 223 222.72 M 223 223.2 213 223.2 M 213 223.69 223 223.69 M 223 224.17 213 224.17 M 213 224.66 223 224.66 M 223 225.14 213 225.14 M 213 225.63 223 225.63 M 223 226.11 213 226.11 M 213 226.6 223 226.6 M 223 227.08 213 227.08 M 213 227.57 223 227.57 M 223 228.05 213 228.05 M 213 228.54 223 228.54 M 223 229.02 213 229.02 M 213 229.51 223 229.51 M 223 229.99 213 229.99 M 213 230.48 223 230.48 M 223 230.96 213 230.96 M 213 231.45 223 231.45 M 223 231.93 213 231.93 M 213 232.42 223 232.42 M 223 232.91 213 232.91 M 450.5 1173.25 450.5 1208 460.5 1208 460.5 1173.25 450.5 1173.25 M 450.5 1173.54 460.5 1173.54 M 460.5 1174.02 450.5 1174.02 M 450.5 1174.51 460.5 1174.51 M 460.5 1174.99 450.5 1174.99 M 450.5 1175.48 460.5 1175.48 M 460.5 1175.97 450.5 1175.97 M 450.5 1176.45 460.5 1176.45 M 460.5 1176.94 450.5 1176.94 M 450.5 1177.42 460.5 1177.42 M 460.5 1177.91 450.5 1177.91 M 450.5 1178.39 460.5 1178.39 M 460.5 1178.88 450.5 1178.88 M 450.5 1179.36 460.5 1179.36 M 460.5 1179.85 450.5 1179.85 M 450.5 1180.33 460.5 1180.33 M 460.5 1180.82 450.5 1180.82 M 450.5 1181.3 460.5 1181.3 M 460.5 1181.79 450.5 1181.79 M 450.5 1182.27 460.5 1182.27 M 460.5 1182.76 450.5 1182.76 M 450.5 1183.24 460.5 1183.24 M 460.5 1183.73 450.5 1183.73 M 450.5 1184.21 460.5 1184.21 M 460.5 1184.7 450.5 1184.7 M 450.5 1185.18 460.5 1185.18 M 460.5 1185.67 450.5 1185.67 M 450.5 1186.15 460.5 1186.15 M 460.5 1186.64 450.5 1186.64 M 450.5 1187.12 460.5 1187.12 M 460.5 1187.61 450.5 1187.61 M 450.5 1188.09 460.5 1188.09 M 460.5 1188.58 450.5 1188.58 M 450.5 1189.06 460.5 1189.06 M 460.5 1189.55 450.5 1189.55 M 450.5 1190.03 460.5 1190.03 M 460.5 1190.52 450.5 1190.52 M 450.5 1191 460.5 1191 M 460.5 1191.49 450.5 1191.49 M 450.5 1191.97 460.5 1191.97 M 460.5 1192.46 450.5 1192.46 M 450.5 1192.94 460.5 1192.94 M 460.5 1193.43 450.5 1193.43 M 450.5 1193.91 460.5 1193.91 M 460.5 1194.4 450.5 1194.4 M 450.5 1194.88 460.5 1194.88 M 460.5 1195.37 450.5 1195.37 M 450.5 1195.85 460.5 1195.85 M 460.5 1196.34 450.5 1196.34 M 450.5 1196.83 460.5 1196.83 M 460.5 1197.31 450.5 1197.31 M 450.5 1197.8 460.5 1197.8 M 460.5 1198.28 450.5 1198.28 M 450.5 1198.77 460.5 1198.77 M 460.5 1199.25 450.5 1199.25 M 450.5 1199.74 460.5 1199.74 M 460.5 1200.22 450.5 1200.22 M 450.5 1200.71 460.5 1200.71 M 460.5 1201.19 450.5 1201.19 M 450.5 1201.68 460.5 1201.68 M 460.5 1202.16 450.5 1202.16 M 450.5 1202.65 460.5 1202.65 M 460.5 1203.13 450.5 1203.13 M 450.5 1203.62 460.5 1203.62 M 460.5 1204.1 450.5 1204.1 M 450.5 1204.59 460.5 1204.59 M 460.5 1205.07 450.5 1205.07 M 450.5 1205.56 460.5 1205.56 M 460.5 1206.04 450.5 1206.04 M 450.5 1206.53 460.5 1206.53 M 460.5 1207.01 450.5 1207.01 M 450.5 1207.5 460.5 1207.5 M 460.5 1207.98 450.5 1207.98 M 550.5 1208 550.5 1173.25 560.5 1173.25 560.5 1208 550.5 1208 M 550.5 1207.98 560.5 1207.98 M 560.5 1207.5 550.5 1207.5 M 550.5 1207.01 560.5 1207.01 M 560.5 1206.53 550.5 1206.53 M 550.5 1206.04 560.5 1206.04 M 560.5 1205.56 550.5 1205.56 M 550.5 1205.07 560.5 1205.07 M 560.5 1204.59 550.5 1204.59 M 550.5 1204.1 560.5 1204.1 M 560.5 1203.62 550.5 1203.62 M 550.5 1203.13 560.5 1203.13 M 560.5 1202.65 550.5 1202.65 M 550.5 1202.16 560.5 1202.16 M 560.5 1201.68 550.5 1201.68 M 550.5 1201.19 560.5 1201.19 M 560.5 1200.71 550.5 1200.71 M 550.5 1200.22 560.5 1200.22 M 560.5 1199.74 550.5 1199.74 M 550.5 1199.25 560.5 1199.25 M 560.5 1198.77 550.5 1198.77 M 550.5 1198.28 560.5 1198.28 M 560.5 1197.8 550.5 1197.8 M 550.5 1197.31 560.5 1197.31 M 560.5 1196.83 550.5 1196.83 M 550.5 1196.34 560.5 1196.34 M 560.5 1195.85 550.5 1195.85 M 550.5 1195.37 560.5 1195.37 M 560.5 1194.88 550.5 1194.88 M 550.5 1194.4 560.5 1194.4 M 560.5 1193.91 550.5 1193.91 M 550.5 1193.43 560.5 1193.43 M 560.5 1192.94 550.5 1192.94 M 550.5 1192.46 560.5 1192.46 M 560.5 1191.97 550.5 1191.97 M 550.5 1191.49 560.5 1191.49 M 560.5 1191 550.5 1191 M 550.5 1190.52 560.5 1190.52 M 560.5 1190.03 550.5 1190.03 M 550.5 1189.55 560.5 1189.55 M 560.5 1189.06 550.5 1189.06 M 550.5 1188.58 560.5 1188.58 M 560.5 1188.09 550.5 1188.09 M 550.5 1187.61 560.5 1187.61 M 560.5 1187.12 550.5 1187.12 M 550.5 1186.64 560.5 1186.64 M 560.5 1186.15 550.5 1186.15 M 550.5 1185.67 560.5 1185.67 M 560.5 1185.18 550.5 1185.18 M 550.5 1184.7 560.5 1184.7 M 560.5 1184.21 550.5 1184.21 M 550.5 1183.73 560.5 1183.73 M 560.5 1183.24 550.5 1183.24 M 550.5 1182.76 560.5 1182.76 M 560.5 1182.27 550.5 1182.27 M 550.5 1181.79 560.5 1181.79 M 560.5 1181.3 550.5 1181.3 M 550.5 1180.82 560.5 1180.82 M 560.5 1180.33 550.5 1180.33 M 550.5 1179.85 560.5 1179.85 M 560.5 1179.36 550.5 1179.36 M 550.5 1178.88 560.5 1178.88 M 560.5 1178.39 550.5 1178.39 M 550.5 1177.91 560.5 1177.91 M 560.5 1177.42 550.5 1177.42 M 550.5 1176.94 560.5 1176.94 M 560.5 1176.45 550.5 1176.45 M 550.5 1175.97 560.5 1175.97 M 560.5 1175.48 550.5 1175.48 M 550.5 1174.99 560.5 1174.99 M 560.5 1174.51 550.5 1174.51 M 550.5 1174.02 560.5 1174.02 M 560.5 1173.54 550.5 1173.54 M 650.5 1173.54 660.5 1173.54 M 660.5 1173.25 650.5 1173.25 650.5 1208 660.5 1208 660.5 1173.25 M 660.5 1174.02 650.5 1174.02 M 650.5 1174.51 660.5 1174.51 M 660.5 1174.99 650.5 1174.99 M 650.5 1175.48 660.5 1175.48 M 660.5 1175.97 650.5 1175.97 M 650.5 1176.45 660.5 1176.45 M 660.5 1176.94 650.5 1176.94 M 650.5 1177.42 660.5 1177.42 M 660.5 1177.91 650.5 1177.91 M 650.5 1178.39 660.5 1178.39 M 660.5 1178.88 650.5 1178.88 M 650.5 1179.36 660.5 1179.36 M 660.5 1179.85 650.5 1179.85 M 650.5 1180.33 660.5 1180.33 M 660.5 1180.82 650.5 1180.82 M 650.5 1181.3 660.5 1181.3 M 660.5 1181.79 650.5 1181.79 M 650.5 1182.27 660.5 1182.27 M 660.5 1182.76 650.5 1182.76 M 650.5 1183.24 660.5 1183.24 M 660.5 1183.73 650.5 1183.73 M 650.5 1184.21 660.5 1184.21 M 660.5 1184.7 650.5 1184.7 M 650.5 1185.18 660.5 1185.18 M 660.5 1185.67 650.5 1185.67 M 650.5 1186.15 660.5 1186.15 M 660.5 1186.64 650.5 1186.64 M 650.5 1187.12 660.5 1187.12 M 660.5 1187.61 650.5 1187.61 M 650.5 1188.09 660.5 1188.09 M 660.5 1188.58 650.5 1188.58 M 650.5 1189.06 660.5 1189.06 M 660.5 1189.55 650.5 1189.55 M 650.5 1190.03 660.5 1190.03 M 660.5 1190.52 650.5 1190.52 M 650.5 1191 660.5 1191 M 660.5 1191.49 650.5 1191.49 M 650.5 1191.97 660.5 1191.97 M 660.5 1192.46 650.5 1192.46 M 650.5 1192.94 660.5 1192.94 M 660.5 1193.43 650.5 1193.43 M 650.5 1193.91 660.5 1193.91 M 660.5 1194.4 650.5 1194.4 M 650.5 1194.88 660.5 1194.88 M 660.5 1195.37 650.5 1195.37 M 650.5 1195.85 660.5 1195.85 M 660.5 1196.34 650.5 1196.34 M 650.5 1196.83 660.5 1196.83 M 660.5 1197.31 650.5 1197.31 M 650.5 1197.8 660.5 1197.8 M 660.5 1198.28 650.5 1198.28 M 650.5 1198.77 660.5 1198.77 M 660.5 1199.25 650.5 1199.25 M 650.5 1199.74 660.5 1199.74 M 660.5 1200.22 650.5 1200.22 M 650.5 1200.71 660.5 1200.71 M 660.5 1201.19 650.5 1201.19 M 650.5 1201.68 660.5 1201.68 M 660.5 1202.16 650.5 1202.16 M 650.5 1202.65 660.5 1202.65 M 660.5 1203.13 650.5 1203.13 M 650.5 1203.62 660.5 1203.62 M 660.5 1204.1 650.5 1204.1 M 650.5 1204.59 660.5 1204.59 M 660.5 1205.07 650.5 1205.07 M 650.5 1205.56 660.5 1205.56 M 660.5 1206.04 650.5 1206.04 M 650.5 1206.53 660.5 1206.53 M 660.5 1207.01 650.5 1207.01 M 650.5 1207.5 660.5 1207.5 M 660.5 1207.98 650.5 1207.98" fill="none" stroke-width="0.5"/><use xlink:href="#jFfbUCjRCprYlE1g8kBb_pad-14" x="655.5" y="1101.46"/><use xlink:href="#jFfbUCjRCprYlE1g8kBb_pad-14" x="655.5" y="1034.54"/><use xlink:href="#jFfbUCjRCprYlE1g8kBb_pad-14" x="555.5" y="1034.54"/><use xlink:href="#jFfbUCjRCprYlE1g8kBb_pad-14" x="555.5" y="1101.46"/><use xlink:href="#jFfbUCjRCprYlE1g8kBb_pad-14" x="455.5" y="1101.46"/><use xlink:href="#jFfbUCjRCprYlE1g8kBb_pad-14" x="455.5" y="1034.54"/><use xlink:href="#jFfbUCjRCprYlE1g8kBb_pad-15" x="320.5" y="480.5"/><use xlink:href="#jFfbUCjRCprYlE1g8kBb_pad-15" x="320.5" y="430.5"/><use xlink:href="#jFfbUCjRCprYlE1g8kBb_pad-15" x="320.5" y="380.5"/><use xlink:href="#jFfbUCjRCprYlE1g8kBb_pad-15" x="320.5" y="330.5"/><use xlink:href="#jFfbUCjRCprYlE1g8kBb_pad-15" x="320.5" y="280.5"/><use xlink:href="#jFfbUCjRCprYlE1g8kBb_pad-15" x="320.5" y="230.5"/><use xlink:href="#jFfbUCjRCprYlE1g8kBb_pad-15" x="320.5" y="180.5"/><use xlink:href="#jFfbUCjRCprYlE1g8kBb_pad-15" x="320.5" y="130.5"/><use xlink:href="#jFfbUCjRCprYlE1g8kBb_pad-15" x="690.5" y="130.5"/><use xlink:href="#jFfbUCjRCprYlE1g8kBb_pad-15" x="690.5" y="180.5"/><use xlink:href="#jFfbUCjRCprYlE1g8kBb_pad-15" x="690.5" y="230.5"/><use xlink:href="#jFfbUCjRCprYlE1g8kBb_pad-15" x="690.5" y="280.5"/><use xlink:href="#jFfbUCjRCprYlE1g8kBb_pad-15" x="690.5" y="330.5"/><use xlink:href="#jFfbUCjRCprYlE1g8kBb_pad-15" x="690.5" y="380.5"/><use xlink:href="#jFfbUCjRCprYlE1g8kBb_pad-15" x="690.5" y="430.5"/><use xlink:href="#jFfbUCjRCprYlE1g8kBb_pad-15" x="690.5" y="480.5"/><use xlink:href="#jFfbUCjRCprYlE1g8kBb_pad-16" x="398.12" y="793"/><use xlink:href="#jFfbUCjRCprYlE1g8kBb_pad-16" x="287.88" y="793"/><path d="M 693.73 722.29 693.73 688.71 738.19 684.19 741.11 674.14 745.11 664.47 750.16 655.3 721.92 620.67 745.67 596.92 780.3 625.16 789.47 620.11 799.14 616.11 809.19 613.19 813.71 568.73 847.29 568.73 851.81 613.19 861.86 616.11 871.53 620.11 880.7 625.16 915.33 596.92 939.08 620.67 910.84 655.3 914.72 662.12 918.02 669.24 870.28 689.02 866.96 682.59 862.61 676.8 857.35 671.83 851.33 667.81 844.72 664.85 837.71 663.05 830.5 662.44 822.46 663.19 814.7 665.44 807.5 669.09 801.11 674.03 795.75 680.07 791.61 687 788.84 694.59 787.54 702.56 787.74 710.63 789.46 718.53 792.61 725.96 797.1 732.67 802.76 738.43 809.39 743.03 816.77 746.31 824.63 748.16 832.7 748.5 840.69 747.34 848.33 744.7 855.33 740.68 861.46 735.43 866.51 729.12 870.28 721.98 918.02 741.76 914.72 748.88 910.84 755.7 939.08 790.33 915.33 814.08 880.7 785.84 871.53 790.89 861.86 794.89 851.81 797.81 847.29 842.27 813.71 842.27 809.19 797.81 799.14 794.89 789.47 790.89 780.3 785.84 745.67 814.08 721.92 790.33 750.16 755.7 745.11 746.53 741.11 736.86 738.19 726.81 693.73 722.29 M 693.73 718.98 789.65 718.98 M 788.28 713.09 693.73 713.09 M 693.73 707.2 787.66 707.2 M 787.74 701.31 693.73 701.31 M 693.73 695.42 788.71 695.42 M 790.69 689.53 693.73 689.53 M 719.15 724.88 792.15 724.88 M 795.82 730.77 739.34 730.77 M 741.05 736.66 801.01 736.66 M 808.69 742.55 743.46 742.55 M 746.16 748.44 831.13 748.44 M 833.16 748.44 914.93 748.44 M 917.66 742.55 852.08 742.55 M 860.03 736.66 905.71 736.66 M 891.49 730.77 865.19 730.77 M 868.75 724.88 877.27 724.88 M 883.27 683.64 867.5 683.64 M 863.32 677.75 897.49 677.75 M 911.71 671.86 857.38 671.86 M 847.22 665.97 916.51 665.97 M 913.56 660.08 747.53 660.08 M 749.25 654.19 911.75 654.19 M 916.55 648.3 744.45 648.3 M 739.64 642.41 921.36 642.41 M 926.16 636.52 734.84 636.52 M 730.04 630.62 930.96 630.62 M 935.76 624.73 881.22 624.73 M 879.93 624.73 781.07 624.73 M 779.78 624.73 725.24 624.73 M 723.74 618.84 772.56 618.84 M 765.33 612.95 729.63 612.95 M 735.52 607.06 758.11 607.06 M 750.88 601.17 741.41 601.17 M 792.53 618.84 868.47 618.84 M 851.79 612.95 809.21 612.95 M 809.81 607.06 851.19 607.06 M 850.59 601.17 810.41 601.17 M 811.01 595.28 849.99 595.28 M 849.39 589.39 811.61 589.39 M 812.21 583.5 848.79 583.5 M 848.19 577.61 812.81 577.61 M 813.41 571.72 847.59 571.72 M 888.44 618.84 937.26 618.84 M 931.37 612.95 895.67 612.95 M 902.89 607.06 925.48 607.06 M 919.59 601.17 910.12 601.17 M 813.66 665.97 744.49 665.97 M 742.05 671.86 803.92 671.86 M 797.81 677.75 740.06 677.75 M 738.35 683.64 793.62 683.64 M 749.4 754.33 911.62 754.33 M 914.53 760.22 746.47 760.22 M 741.67 766.11 919.33 766.11 M 924.13 772 736.87 772 M 732.06 777.89 928.94 777.89 M 933.74 783.78 727.26 783.78 M 722.46 789.67 775.6 789.67 M 768.38 795.56 727.15 795.56 M 733.04 801.45 761.15 801.45 M 753.93 807.34 738.93 807.34 M 744.82 813.23 746.71 813.23 M 787.26 789.67 873.74 789.67 M 885.4 789.67 938.54 789.67 M 933.85 795.56 892.62 795.56 M 899.85 801.45 927.96 801.45 M 922.07 807.34 907.07 807.34 M 914.29 813.23 916.18 813.23 M 859.56 795.56 801.45 795.56 M 809.56 801.45 851.44 801.45 M 850.84 807.34 810.16 807.34 M 810.76 813.23 850.24 813.23 M 849.64 819.13 811.36 819.13 M 811.95 825.02 849.05 825.02 M 848.45 830.91 812.55 830.91 M 813.15 836.8 847.85 836.8" fill="none" stroke-width="5.91"/><path d="M 655.5 930.5 655.5 1030.5 M 655.5 1118 655.5 1193 M 655.5 1201 555.5 1201 455.5 1201 388.5 1201 355.5 1168 355.5 930.5 405.5 880.5 405.5 793 398.12 793 M 405.5 793 405.5 680.5 401.46 680.5 M 405.5 680.5 405.5 580.5 401.46 580.5 M 405.5 580.5 405.5 405.5 380.5 380.5 318 380.5 M 320.5 430.5 218 430.5 M 218 580.5 334.54 580.5 M 334.54 680.5 218 680.5 M 193 793 287.88 793 M 455.5 918 505.5 868 505.5 355.5 580.5 280.5 655.5 280.5 M 655.5 330.5 605.5 330.5 555.5 380.5 555.5 930.5 555.5 1030.5 M 555.5 1118 555.5 1193 M 455.5 1193 455.5 1118 M 455.5 1018 455.5 930.5 455.5 918 M 605.5 880.5 605.5 405.5 630.5 380.5 655.5 380.5 M 320.5 280.5 243 280.5 218 255.5 218 226 M 218 185 218 155.5 243 130.5 320.5 130.5 M 605.5 880.5 655.5 930.5" fill="none" stroke-width="16"/><use xlink:href="#jFfbUCjRCprYlE1g8kBb_pad-19" x="218" y="680.5"/><use xlink:href="#jFfbUCjRCprYlE1g8kBb_pad-19" x="218" y="580.5"/><use xlink:href="#jFfbUCjRCprYlE1g8kBb_pad-19" x="218" y="430.5"/><use xlink:href="#jFfbUCjRCprYlE1g8kBb_pad-19" x="193" y="793"/></g></svg>