G75*
%MOIN*%
%OFA0B0*%
%FSLAX25Y25*%
%IPPOS*%
%LPD*%
%AMOC8*
5,1,8,0,0,1.08239X$1,22.5*
%
%ADD10R,0.04331X0.03937*%
%ADD11C,0.07400*%
%ADD12R,0.05000X0.02600*%
%ADD13C,0.00050*%
%ADD14R,0.03937X0.04331*%
%ADD15R,0.07900X0.02400*%
%ADD16R,0.05512X0.06299*%
%ADD17C,0.00591*%
%ADD18C,0.01600*%
%ADD19C,0.05000*%
D10*
X0033454Y0058050D03*
X0040146Y0058050D03*
X0040146Y0068050D03*
X0033454Y0068050D03*
D11*
X0035550Y0093050D03*
X0045550Y0093050D03*
X0055550Y0093050D03*
X0065550Y0093050D03*
X0075550Y0093050D03*
D12*
X0065550Y0116000D03*
X0065550Y0120100D03*
X0055550Y0120100D03*
X0055550Y0116000D03*
X0045550Y0116000D03*
X0045550Y0120100D03*
X0021800Y0022600D03*
X0021800Y0018500D03*
D13*
X0021300Y0019825D02*
X0021300Y0023300D01*
X0022300Y0023300D01*
X0022300Y0019825D01*
X0021300Y0019825D01*
X0021300Y0019846D02*
X0022300Y0019846D01*
X0022300Y0019895D02*
X0021300Y0019895D01*
X0021300Y0019943D02*
X0022300Y0019943D01*
X0022300Y0019992D02*
X0021300Y0019992D01*
X0021300Y0020040D02*
X0022300Y0020040D01*
X0022300Y0020089D02*
X0021300Y0020089D01*
X0021300Y0020137D02*
X0022300Y0020137D01*
X0022300Y0020186D02*
X0021300Y0020186D01*
X0021300Y0020234D02*
X0022300Y0020234D01*
X0022300Y0020283D02*
X0021300Y0020283D01*
X0021300Y0020331D02*
X0022300Y0020331D01*
X0022300Y0020380D02*
X0021300Y0020380D01*
X0021300Y0020428D02*
X0022300Y0020428D01*
X0022300Y0020477D02*
X0021300Y0020477D01*
X0021300Y0020525D02*
X0022300Y0020525D01*
X0022300Y0020574D02*
X0021300Y0020574D01*
X0021300Y0020622D02*
X0022300Y0020622D01*
X0022300Y0020671D02*
X0021300Y0020671D01*
X0021300Y0020719D02*
X0022300Y0020719D01*
X0022300Y0020768D02*
X0021300Y0020768D01*
X0021300Y0020816D02*
X0022300Y0020816D01*
X0022300Y0020865D02*
X0021300Y0020865D01*
X0021300Y0020913D02*
X0022300Y0020913D01*
X0022300Y0020962D02*
X0021300Y0020962D01*
X0021300Y0021010D02*
X0022300Y0021010D01*
X0022300Y0021059D02*
X0021300Y0021059D01*
X0021300Y0021108D02*
X0022300Y0021108D01*
X0022300Y0021156D02*
X0021300Y0021156D01*
X0021300Y0021205D02*
X0022300Y0021205D01*
X0022300Y0021253D02*
X0021300Y0021253D01*
X0021300Y0021302D02*
X0022300Y0021302D01*
X0022300Y0021350D02*
X0021300Y0021350D01*
X0021300Y0021399D02*
X0022300Y0021399D01*
X0022300Y0021447D02*
X0021300Y0021447D01*
X0021300Y0021496D02*
X0022300Y0021496D01*
X0022300Y0021544D02*
X0021300Y0021544D01*
X0021300Y0021593D02*
X0022300Y0021593D01*
X0022300Y0021641D02*
X0021300Y0021641D01*
X0021300Y0021690D02*
X0022300Y0021690D01*
X0022300Y0021738D02*
X0021300Y0021738D01*
X0021300Y0021787D02*
X0022300Y0021787D01*
X0022300Y0021835D02*
X0021300Y0021835D01*
X0021300Y0021884D02*
X0022300Y0021884D01*
X0022300Y0021932D02*
X0021300Y0021932D01*
X0021300Y0021981D02*
X0022300Y0021981D01*
X0022300Y0022029D02*
X0021300Y0022029D01*
X0021300Y0022078D02*
X0022300Y0022078D01*
X0022300Y0022126D02*
X0021300Y0022126D01*
X0021300Y0022175D02*
X0022300Y0022175D01*
X0022300Y0022223D02*
X0021300Y0022223D01*
X0021300Y0022272D02*
X0022300Y0022272D01*
X0022300Y0022320D02*
X0021300Y0022320D01*
X0021300Y0022369D02*
X0022300Y0022369D01*
X0022300Y0022417D02*
X0021300Y0022417D01*
X0021300Y0022466D02*
X0022300Y0022466D01*
X0022300Y0022514D02*
X0021300Y0022514D01*
X0021300Y0022563D02*
X0022300Y0022563D01*
X0022300Y0022611D02*
X0021300Y0022611D01*
X0021300Y0022660D02*
X0022300Y0022660D01*
X0022300Y0022708D02*
X0021300Y0022708D01*
X0021300Y0022757D02*
X0022300Y0022757D01*
X0022300Y0022805D02*
X0021300Y0022805D01*
X0021300Y0022854D02*
X0022300Y0022854D01*
X0022300Y0022902D02*
X0021300Y0022902D01*
X0021300Y0022951D02*
X0022300Y0022951D01*
X0022300Y0022999D02*
X0021300Y0022999D01*
X0021300Y0023048D02*
X0022300Y0023048D01*
X0022300Y0023096D02*
X0021300Y0023096D01*
X0021300Y0023145D02*
X0022300Y0023145D01*
X0022300Y0023193D02*
X0021300Y0023193D01*
X0021300Y0023242D02*
X0022300Y0023242D01*
X0022300Y0023291D02*
X0021300Y0023291D01*
X0045050Y0117325D02*
X0045050Y0120800D01*
X0046050Y0120800D01*
X0046050Y0117325D01*
X0045050Y0117325D01*
X0045050Y0117354D02*
X0046050Y0117354D01*
X0046050Y0117402D02*
X0045050Y0117402D01*
X0045050Y0117451D02*
X0046050Y0117451D01*
X0046050Y0117499D02*
X0045050Y0117499D01*
X0045050Y0117548D02*
X0046050Y0117548D01*
X0046050Y0117597D02*
X0045050Y0117597D01*
X0045050Y0117645D02*
X0046050Y0117645D01*
X0046050Y0117694D02*
X0045050Y0117694D01*
X0045050Y0117742D02*
X0046050Y0117742D01*
X0046050Y0117791D02*
X0045050Y0117791D01*
X0045050Y0117839D02*
X0046050Y0117839D01*
X0046050Y0117888D02*
X0045050Y0117888D01*
X0045050Y0117936D02*
X0046050Y0117936D01*
X0046050Y0117985D02*
X0045050Y0117985D01*
X0045050Y0118033D02*
X0046050Y0118033D01*
X0046050Y0118082D02*
X0045050Y0118082D01*
X0045050Y0118130D02*
X0046050Y0118130D01*
X0046050Y0118179D02*
X0045050Y0118179D01*
X0045050Y0118227D02*
X0046050Y0118227D01*
X0046050Y0118276D02*
X0045050Y0118276D01*
X0045050Y0118324D02*
X0046050Y0118324D01*
X0046050Y0118373D02*
X0045050Y0118373D01*
X0045050Y0118421D02*
X0046050Y0118421D01*
X0046050Y0118470D02*
X0045050Y0118470D01*
X0045050Y0118518D02*
X0046050Y0118518D01*
X0046050Y0118567D02*
X0045050Y0118567D01*
X0045050Y0118615D02*
X0046050Y0118615D01*
X0046050Y0118664D02*
X0045050Y0118664D01*
X0045050Y0118712D02*
X0046050Y0118712D01*
X0046050Y0118761D02*
X0045050Y0118761D01*
X0045050Y0118809D02*
X0046050Y0118809D01*
X0046050Y0118858D02*
X0045050Y0118858D01*
X0045050Y0118906D02*
X0046050Y0118906D01*
X0046050Y0118955D02*
X0045050Y0118955D01*
X0045050Y0119003D02*
X0046050Y0119003D01*
X0046050Y0119052D02*
X0045050Y0119052D01*
X0045050Y0119100D02*
X0046050Y0119100D01*
X0046050Y0119149D02*
X0045050Y0119149D01*
X0045050Y0119197D02*
X0046050Y0119197D01*
X0046050Y0119246D02*
X0045050Y0119246D01*
X0045050Y0119294D02*
X0046050Y0119294D01*
X0046050Y0119343D02*
X0045050Y0119343D01*
X0045050Y0119391D02*
X0046050Y0119391D01*
X0046050Y0119440D02*
X0045050Y0119440D01*
X0045050Y0119488D02*
X0046050Y0119488D01*
X0046050Y0119537D02*
X0045050Y0119537D01*
X0045050Y0119585D02*
X0046050Y0119585D01*
X0046050Y0119634D02*
X0045050Y0119634D01*
X0045050Y0119683D02*
X0046050Y0119683D01*
X0046050Y0119731D02*
X0045050Y0119731D01*
X0045050Y0119780D02*
X0046050Y0119780D01*
X0046050Y0119828D02*
X0045050Y0119828D01*
X0045050Y0119877D02*
X0046050Y0119877D01*
X0046050Y0119925D02*
X0045050Y0119925D01*
X0045050Y0119974D02*
X0046050Y0119974D01*
X0046050Y0120022D02*
X0045050Y0120022D01*
X0045050Y0120071D02*
X0046050Y0120071D01*
X0046050Y0120119D02*
X0045050Y0120119D01*
X0045050Y0120168D02*
X0046050Y0120168D01*
X0046050Y0120216D02*
X0045050Y0120216D01*
X0045050Y0120265D02*
X0046050Y0120265D01*
X0046050Y0120313D02*
X0045050Y0120313D01*
X0045050Y0120362D02*
X0046050Y0120362D01*
X0046050Y0120410D02*
X0045050Y0120410D01*
X0045050Y0120459D02*
X0046050Y0120459D01*
X0046050Y0120507D02*
X0045050Y0120507D01*
X0045050Y0120556D02*
X0046050Y0120556D01*
X0046050Y0120604D02*
X0045050Y0120604D01*
X0045050Y0120653D02*
X0046050Y0120653D01*
X0046050Y0120701D02*
X0045050Y0120701D01*
X0045050Y0120750D02*
X0046050Y0120750D01*
X0046050Y0120798D02*
X0045050Y0120798D01*
X0055050Y0120800D02*
X0055050Y0117325D01*
X0056050Y0117325D01*
X0056050Y0120800D01*
X0055050Y0120800D01*
X0055050Y0120798D02*
X0056050Y0120798D01*
X0056050Y0120750D02*
X0055050Y0120750D01*
X0055050Y0120701D02*
X0056050Y0120701D01*
X0056050Y0120653D02*
X0055050Y0120653D01*
X0055050Y0120604D02*
X0056050Y0120604D01*
X0056050Y0120556D02*
X0055050Y0120556D01*
X0055050Y0120507D02*
X0056050Y0120507D01*
X0056050Y0120459D02*
X0055050Y0120459D01*
X0055050Y0120410D02*
X0056050Y0120410D01*
X0056050Y0120362D02*
X0055050Y0120362D01*
X0055050Y0120313D02*
X0056050Y0120313D01*
X0056050Y0120265D02*
X0055050Y0120265D01*
X0055050Y0120216D02*
X0056050Y0120216D01*
X0056050Y0120168D02*
X0055050Y0120168D01*
X0055050Y0120119D02*
X0056050Y0120119D01*
X0056050Y0120071D02*
X0055050Y0120071D01*
X0055050Y0120022D02*
X0056050Y0120022D01*
X0056050Y0119974D02*
X0055050Y0119974D01*
X0055050Y0119925D02*
X0056050Y0119925D01*
X0056050Y0119877D02*
X0055050Y0119877D01*
X0055050Y0119828D02*
X0056050Y0119828D01*
X0056050Y0119780D02*
X0055050Y0119780D01*
X0055050Y0119731D02*
X0056050Y0119731D01*
X0056050Y0119683D02*
X0055050Y0119683D01*
X0055050Y0119634D02*
X0056050Y0119634D01*
X0056050Y0119585D02*
X0055050Y0119585D01*
X0055050Y0119537D02*
X0056050Y0119537D01*
X0056050Y0119488D02*
X0055050Y0119488D01*
X0055050Y0119440D02*
X0056050Y0119440D01*
X0056050Y0119391D02*
X0055050Y0119391D01*
X0055050Y0119343D02*
X0056050Y0119343D01*
X0056050Y0119294D02*
X0055050Y0119294D01*
X0055050Y0119246D02*
X0056050Y0119246D01*
X0056050Y0119197D02*
X0055050Y0119197D01*
X0055050Y0119149D02*
X0056050Y0119149D01*
X0056050Y0119100D02*
X0055050Y0119100D01*
X0055050Y0119052D02*
X0056050Y0119052D01*
X0056050Y0119003D02*
X0055050Y0119003D01*
X0055050Y0118955D02*
X0056050Y0118955D01*
X0056050Y0118906D02*
X0055050Y0118906D01*
X0055050Y0118858D02*
X0056050Y0118858D01*
X0056050Y0118809D02*
X0055050Y0118809D01*
X0055050Y0118761D02*
X0056050Y0118761D01*
X0056050Y0118712D02*
X0055050Y0118712D01*
X0055050Y0118664D02*
X0056050Y0118664D01*
X0056050Y0118615D02*
X0055050Y0118615D01*
X0055050Y0118567D02*
X0056050Y0118567D01*
X0056050Y0118518D02*
X0055050Y0118518D01*
X0055050Y0118470D02*
X0056050Y0118470D01*
X0056050Y0118421D02*
X0055050Y0118421D01*
X0055050Y0118373D02*
X0056050Y0118373D01*
X0056050Y0118324D02*
X0055050Y0118324D01*
X0055050Y0118276D02*
X0056050Y0118276D01*
X0056050Y0118227D02*
X0055050Y0118227D01*
X0055050Y0118179D02*
X0056050Y0118179D01*
X0056050Y0118130D02*
X0055050Y0118130D01*
X0055050Y0118082D02*
X0056050Y0118082D01*
X0056050Y0118033D02*
X0055050Y0118033D01*
X0055050Y0117985D02*
X0056050Y0117985D01*
X0056050Y0117936D02*
X0055050Y0117936D01*
X0055050Y0117888D02*
X0056050Y0117888D01*
X0056050Y0117839D02*
X0055050Y0117839D01*
X0055050Y0117791D02*
X0056050Y0117791D01*
X0056050Y0117742D02*
X0055050Y0117742D01*
X0055050Y0117694D02*
X0056050Y0117694D01*
X0056050Y0117645D02*
X0055050Y0117645D01*
X0055050Y0117597D02*
X0056050Y0117597D01*
X0056050Y0117548D02*
X0055050Y0117548D01*
X0055050Y0117499D02*
X0056050Y0117499D01*
X0056050Y0117451D02*
X0055050Y0117451D01*
X0055050Y0117402D02*
X0056050Y0117402D01*
X0056050Y0117354D02*
X0055050Y0117354D01*
X0065050Y0117354D02*
X0066050Y0117354D01*
X0066050Y0117325D02*
X0065050Y0117325D01*
X0065050Y0120800D01*
X0066050Y0120800D01*
X0066050Y0117325D01*
X0066050Y0117402D02*
X0065050Y0117402D01*
X0065050Y0117451D02*
X0066050Y0117451D01*
X0066050Y0117499D02*
X0065050Y0117499D01*
X0065050Y0117548D02*
X0066050Y0117548D01*
X0066050Y0117597D02*
X0065050Y0117597D01*
X0065050Y0117645D02*
X0066050Y0117645D01*
X0066050Y0117694D02*
X0065050Y0117694D01*
X0065050Y0117742D02*
X0066050Y0117742D01*
X0066050Y0117791D02*
X0065050Y0117791D01*
X0065050Y0117839D02*
X0066050Y0117839D01*
X0066050Y0117888D02*
X0065050Y0117888D01*
X0065050Y0117936D02*
X0066050Y0117936D01*
X0066050Y0117985D02*
X0065050Y0117985D01*
X0065050Y0118033D02*
X0066050Y0118033D01*
X0066050Y0118082D02*
X0065050Y0118082D01*
X0065050Y0118130D02*
X0066050Y0118130D01*
X0066050Y0118179D02*
X0065050Y0118179D01*
X0065050Y0118227D02*
X0066050Y0118227D01*
X0066050Y0118276D02*
X0065050Y0118276D01*
X0065050Y0118324D02*
X0066050Y0118324D01*
X0066050Y0118373D02*
X0065050Y0118373D01*
X0065050Y0118421D02*
X0066050Y0118421D01*
X0066050Y0118470D02*
X0065050Y0118470D01*
X0065050Y0118518D02*
X0066050Y0118518D01*
X0066050Y0118567D02*
X0065050Y0118567D01*
X0065050Y0118615D02*
X0066050Y0118615D01*
X0066050Y0118664D02*
X0065050Y0118664D01*
X0065050Y0118712D02*
X0066050Y0118712D01*
X0066050Y0118761D02*
X0065050Y0118761D01*
X0065050Y0118809D02*
X0066050Y0118809D01*
X0066050Y0118858D02*
X0065050Y0118858D01*
X0065050Y0118906D02*
X0066050Y0118906D01*
X0066050Y0118955D02*
X0065050Y0118955D01*
X0065050Y0119003D02*
X0066050Y0119003D01*
X0066050Y0119052D02*
X0065050Y0119052D01*
X0065050Y0119100D02*
X0066050Y0119100D01*
X0066050Y0119149D02*
X0065050Y0119149D01*
X0065050Y0119197D02*
X0066050Y0119197D01*
X0066050Y0119246D02*
X0065050Y0119246D01*
X0065050Y0119294D02*
X0066050Y0119294D01*
X0066050Y0119343D02*
X0065050Y0119343D01*
X0065050Y0119391D02*
X0066050Y0119391D01*
X0066050Y0119440D02*
X0065050Y0119440D01*
X0065050Y0119488D02*
X0066050Y0119488D01*
X0066050Y0119537D02*
X0065050Y0119537D01*
X0065050Y0119585D02*
X0066050Y0119585D01*
X0066050Y0119634D02*
X0065050Y0119634D01*
X0065050Y0119683D02*
X0066050Y0119683D01*
X0066050Y0119731D02*
X0065050Y0119731D01*
X0065050Y0119780D02*
X0066050Y0119780D01*
X0066050Y0119828D02*
X0065050Y0119828D01*
X0065050Y0119877D02*
X0066050Y0119877D01*
X0066050Y0119925D02*
X0065050Y0119925D01*
X0065050Y0119974D02*
X0066050Y0119974D01*
X0066050Y0120022D02*
X0065050Y0120022D01*
X0065050Y0120071D02*
X0066050Y0120071D01*
X0066050Y0120119D02*
X0065050Y0120119D01*
X0065050Y0120168D02*
X0066050Y0120168D01*
X0066050Y0120216D02*
X0065050Y0120216D01*
X0065050Y0120265D02*
X0066050Y0120265D01*
X0066050Y0120313D02*
X0065050Y0120313D01*
X0065050Y0120362D02*
X0066050Y0120362D01*
X0066050Y0120410D02*
X0065050Y0120410D01*
X0065050Y0120459D02*
X0066050Y0120459D01*
X0066050Y0120507D02*
X0065050Y0120507D01*
X0065050Y0120556D02*
X0066050Y0120556D01*
X0066050Y0120604D02*
X0065050Y0120604D01*
X0065050Y0120653D02*
X0066050Y0120653D01*
X0066050Y0120701D02*
X0065050Y0120701D01*
X0065050Y0120750D02*
X0066050Y0120750D01*
X0066050Y0120798D02*
X0065050Y0120798D01*
D14*
X0065550Y0110146D03*
X0065550Y0103454D03*
X0055550Y0103454D03*
X0055550Y0110146D03*
X0045550Y0110146D03*
X0045550Y0103454D03*
D15*
X0032050Y0048050D03*
X0032050Y0043050D03*
X0032050Y0038050D03*
X0032050Y0033050D03*
X0032050Y0028050D03*
X0032050Y0023050D03*
X0032050Y0018050D03*
X0032050Y0013050D03*
X0069050Y0013050D03*
X0069050Y0018050D03*
X0069050Y0023050D03*
X0069050Y0028050D03*
X0069050Y0033050D03*
X0069050Y0038050D03*
X0069050Y0043050D03*
X0069050Y0048050D03*
D16*
X0039812Y0079300D03*
X0028788Y0079300D03*
D17*
X0069373Y0072229D02*
X0069373Y0068871D01*
X0073819Y0068419D01*
X0074111Y0067414D01*
X0074511Y0066447D01*
X0075016Y0065530D01*
X0072192Y0062067D01*
X0074567Y0059692D01*
X0078030Y0062516D01*
X0078947Y0062011D01*
X0079914Y0061611D01*
X0080919Y0061319D01*
X0081371Y0056873D01*
X0084729Y0056873D01*
X0085181Y0061319D01*
X0086186Y0061611D01*
X0087153Y0062011D01*
X0088070Y0062516D01*
X0091533Y0059692D01*
X0093908Y0062067D01*
X0091084Y0065530D01*
X0091472Y0066212D01*
X0091802Y0066924D01*
X0087028Y0068902D01*
X0086696Y0068259D01*
X0086261Y0067680D01*
X0085735Y0067183D01*
X0085133Y0066781D01*
X0084472Y0066485D01*
X0083771Y0066305D01*
X0083050Y0066244D01*
X0082246Y0066319D01*
X0081470Y0066544D01*
X0080750Y0066909D01*
X0080111Y0067403D01*
X0079575Y0068007D01*
X0079161Y0068700D01*
X0078884Y0069459D01*
X0078754Y0070256D01*
X0078774Y0071063D01*
X0078946Y0071853D01*
X0079261Y0072596D01*
X0079710Y0073267D01*
X0080276Y0073843D01*
X0080939Y0074303D01*
X0081677Y0074631D01*
X0082463Y0074816D01*
X0083270Y0074850D01*
X0084069Y0074734D01*
X0084833Y0074470D01*
X0085533Y0074068D01*
X0086146Y0073543D01*
X0086651Y0072912D01*
X0087028Y0072198D01*
X0091802Y0074176D01*
X0091472Y0074888D01*
X0091084Y0075570D01*
X0093908Y0079033D01*
X0091533Y0081408D01*
X0088070Y0078584D01*
X0087153Y0079089D01*
X0086186Y0079489D01*
X0085181Y0079781D01*
X0084729Y0084227D01*
X0081371Y0084227D01*
X0080919Y0079781D01*
X0079914Y0079489D01*
X0078947Y0079089D01*
X0078030Y0078584D01*
X0074567Y0081408D01*
X0072192Y0079033D01*
X0075016Y0075570D01*
X0074511Y0074653D01*
X0074111Y0073686D01*
X0073819Y0072681D01*
X0069373Y0072229D01*
X0069373Y0071898D02*
X0078965Y0071898D01*
X0078828Y0071309D02*
X0069373Y0071309D01*
X0069373Y0070720D02*
X0078766Y0070720D01*
X0078774Y0070131D02*
X0069373Y0070131D01*
X0069373Y0069542D02*
X0078871Y0069542D01*
X0079069Y0068953D02*
X0069373Y0068953D01*
X0071915Y0072488D02*
X0079215Y0072488D01*
X0079582Y0073077D02*
X0073934Y0073077D01*
X0074105Y0073666D02*
X0080101Y0073666D01*
X0080869Y0074255D02*
X0074346Y0074255D01*
X0074616Y0074844D02*
X0083113Y0074844D01*
X0083316Y0074844D02*
X0091493Y0074844D01*
X0091766Y0074255D02*
X0085208Y0074255D01*
X0086003Y0073666D02*
X0090571Y0073666D01*
X0089149Y0073077D02*
X0086519Y0073077D01*
X0086875Y0072488D02*
X0087727Y0072488D01*
X0088327Y0068364D02*
X0086750Y0068364D01*
X0086332Y0067775D02*
X0089749Y0067775D01*
X0091171Y0067186D02*
X0085738Y0067186D01*
X0084722Y0066597D02*
X0091651Y0066597D01*
X0091356Y0066008D02*
X0074753Y0066008D01*
X0074925Y0065419D02*
X0091175Y0065419D01*
X0091655Y0064830D02*
X0074445Y0064830D01*
X0073964Y0064241D02*
X0092136Y0064241D01*
X0092616Y0063652D02*
X0073484Y0063652D01*
X0073004Y0063062D02*
X0093096Y0063062D01*
X0093576Y0062473D02*
X0088122Y0062473D01*
X0087993Y0062473D02*
X0078107Y0062473D01*
X0077978Y0062473D02*
X0072524Y0062473D01*
X0072374Y0061884D02*
X0077256Y0061884D01*
X0076533Y0061295D02*
X0072963Y0061295D01*
X0073552Y0060706D02*
X0075811Y0060706D01*
X0075088Y0060117D02*
X0074141Y0060117D01*
X0079253Y0061884D02*
X0086847Y0061884D01*
X0085179Y0061295D02*
X0080921Y0061295D01*
X0080981Y0060706D02*
X0085119Y0060706D01*
X0085059Y0060117D02*
X0081041Y0060117D01*
X0081101Y0059528D02*
X0084999Y0059528D01*
X0084939Y0058939D02*
X0081161Y0058939D01*
X0081221Y0058350D02*
X0084879Y0058350D01*
X0084819Y0057761D02*
X0081281Y0057761D01*
X0081341Y0057172D02*
X0084759Y0057172D01*
X0088844Y0061884D02*
X0093726Y0061884D01*
X0093137Y0061295D02*
X0089567Y0061295D01*
X0090289Y0060706D02*
X0092548Y0060706D01*
X0091959Y0060117D02*
X0091012Y0060117D01*
X0081366Y0066597D02*
X0074449Y0066597D01*
X0074205Y0067186D02*
X0080392Y0067186D01*
X0079781Y0067775D02*
X0074006Y0067775D01*
X0073835Y0068364D02*
X0079362Y0068364D01*
X0074940Y0075433D02*
X0091162Y0075433D01*
X0091453Y0076022D02*
X0074647Y0076022D01*
X0074167Y0076611D02*
X0091933Y0076611D01*
X0092413Y0077200D02*
X0073687Y0077200D01*
X0073206Y0077789D02*
X0092894Y0077789D01*
X0093374Y0078378D02*
X0072726Y0078378D01*
X0072246Y0078967D02*
X0077560Y0078967D01*
X0076838Y0079556D02*
X0072715Y0079556D01*
X0073304Y0080145D02*
X0076115Y0080145D01*
X0075393Y0080734D02*
X0073893Y0080734D01*
X0074482Y0081323D02*
X0074671Y0081323D01*
X0078726Y0078967D02*
X0087374Y0078967D01*
X0088540Y0078967D02*
X0093854Y0078967D01*
X0093385Y0079556D02*
X0089262Y0079556D01*
X0089985Y0080145D02*
X0092796Y0080145D01*
X0092207Y0080734D02*
X0090707Y0080734D01*
X0091429Y0081323D02*
X0091618Y0081323D01*
X0085956Y0079556D02*
X0080145Y0079556D01*
X0080956Y0080145D02*
X0085144Y0080145D01*
X0085084Y0080734D02*
X0081016Y0080734D01*
X0081076Y0081323D02*
X0085024Y0081323D01*
X0084964Y0081913D02*
X0081136Y0081913D01*
X0081195Y0082502D02*
X0084905Y0082502D01*
X0084845Y0083091D02*
X0081255Y0083091D01*
X0081315Y0083680D02*
X0084785Y0083680D01*
D18*
X0065550Y0093050D02*
X0065550Y0103050D01*
X0065550Y0111800D02*
X0065550Y0119300D01*
X0065550Y0120100D02*
X0055550Y0120100D01*
X0045550Y0120100D01*
X0038850Y0120100D01*
X0035550Y0116800D01*
X0035550Y0093050D01*
X0040550Y0088050D01*
X0040550Y0079300D01*
X0039812Y0079300D01*
X0040550Y0079300D02*
X0040550Y0068050D01*
X0040146Y0068050D01*
X0040550Y0068050D02*
X0040550Y0058050D01*
X0040146Y0058050D01*
X0040550Y0058050D02*
X0040550Y0040550D01*
X0038050Y0038050D01*
X0031800Y0038050D01*
X0032050Y0043050D02*
X0021800Y0043050D01*
X0021800Y0058050D02*
X0033454Y0058050D01*
X0033454Y0068050D02*
X0021800Y0068050D01*
X0019300Y0079300D02*
X0028788Y0079300D01*
X0045550Y0091800D02*
X0050550Y0086800D01*
X0050550Y0035550D01*
X0058050Y0028050D01*
X0065550Y0028050D01*
X0065550Y0033050D02*
X0060550Y0033050D01*
X0055550Y0038050D01*
X0055550Y0093050D01*
X0055550Y0103050D01*
X0055550Y0111800D02*
X0055550Y0119300D01*
X0045550Y0119300D02*
X0045550Y0111800D01*
X0045550Y0101800D02*
X0045550Y0093050D01*
X0045550Y0091800D01*
X0060550Y0088050D02*
X0060550Y0040550D01*
X0063050Y0038050D01*
X0065550Y0038050D01*
X0032050Y0028050D02*
X0024300Y0028050D01*
X0021800Y0025550D01*
X0021800Y0022600D01*
X0021800Y0018500D02*
X0021800Y0015550D01*
X0024300Y0013050D01*
X0032050Y0013050D01*
X0060550Y0088050D02*
X0065550Y0093050D01*
D19*
X0021800Y0068050D03*
X0021800Y0058050D03*
X0021800Y0043050D03*
X0019300Y0079300D03*
M02*
