G75*
%MOIN*%
%OFA0B0*%
%FSLAX25Y25*%
%IPPOS*%
%LPD*%
%AMOC8*
5,1,8,0,0,1.08239X$1,22.5*
%
%ADD10C,0.00200*%
%ADD11C,0.00000*%
%ADD12C,0.00500*%
%ADD13C,0.00800*%
D10*
X0081898Y0007667D02*
X0082665Y0008435D01*
X0084200Y0008435D01*
X0084200Y0009202D02*
X0081898Y0009202D01*
X0082665Y0009969D01*
X0081898Y0010737D01*
X0084200Y0010737D01*
X0084200Y0011504D02*
X0081898Y0011504D01*
X0081898Y0012655D01*
X0082282Y0013039D01*
X0083049Y0013039D01*
X0083433Y0012655D01*
X0083433Y0011504D01*
X0085648Y0011888D02*
X0086032Y0011504D01*
X0087566Y0011504D01*
X0087950Y0011888D01*
X0087950Y0012655D01*
X0087566Y0013039D01*
X0086799Y0013806D02*
X0086799Y0015341D01*
X0085648Y0016108D02*
X0087950Y0016108D01*
X0087950Y0017642D01*
X0087566Y0018410D02*
X0086032Y0018410D01*
X0085648Y0018793D01*
X0085648Y0019561D01*
X0086032Y0019944D01*
X0087566Y0018410D01*
X0087950Y0018793D01*
X0087950Y0019561D01*
X0087566Y0019944D01*
X0086032Y0019944D01*
X0086032Y0020712D02*
X0085648Y0021095D01*
X0085648Y0021863D01*
X0086032Y0022246D01*
X0086415Y0022246D01*
X0087950Y0020712D01*
X0087950Y0022246D01*
X0087950Y0023014D02*
X0087950Y0024165D01*
X0087566Y0024548D01*
X0086032Y0024548D01*
X0085648Y0024165D01*
X0085648Y0023014D01*
X0087950Y0023014D01*
X0089782Y0023781D02*
X0089398Y0024548D01*
X0089782Y0023781D02*
X0090549Y0023014D01*
X0090549Y0024165D01*
X0090933Y0024548D01*
X0091316Y0024548D01*
X0091700Y0024165D01*
X0091700Y0023397D01*
X0091316Y0023014D01*
X0090549Y0023014D01*
X0091316Y0022246D02*
X0091700Y0022246D01*
X0091700Y0021863D01*
X0091316Y0021863D01*
X0091316Y0022246D01*
X0091316Y0021095D02*
X0090933Y0021095D01*
X0090549Y0020712D01*
X0090549Y0020328D01*
X0090549Y0020712D02*
X0090165Y0021095D01*
X0089782Y0021095D01*
X0089398Y0020712D01*
X0089398Y0019944D01*
X0089782Y0019561D01*
X0091316Y0019561D02*
X0091700Y0019944D01*
X0091700Y0020712D01*
X0091316Y0021095D01*
X0093148Y0021095D02*
X0093148Y0021863D01*
X0093532Y0022246D01*
X0095066Y0022246D01*
X0095450Y0021863D01*
X0095450Y0021095D01*
X0095066Y0020712D01*
X0093532Y0020712D01*
X0093148Y0021095D01*
X0093148Y0019944D02*
X0093148Y0018410D01*
X0093148Y0019177D02*
X0095450Y0019177D01*
X0095450Y0023014D02*
X0093148Y0023014D01*
X0093148Y0024165D01*
X0093532Y0024548D01*
X0095066Y0024548D01*
X0095450Y0024165D01*
X0095450Y0023014D01*
X0095450Y0025316D02*
X0095450Y0026467D01*
X0095066Y0026850D01*
X0093532Y0026850D01*
X0093148Y0026467D01*
X0093148Y0025316D01*
X0095450Y0025316D01*
X0095450Y0029920D02*
X0093148Y0029920D01*
X0093915Y0030687D01*
X0093148Y0031454D01*
X0095450Y0031454D01*
X0095450Y0032222D02*
X0095450Y0032989D01*
X0095450Y0032605D02*
X0093148Y0032605D01*
X0093148Y0032222D02*
X0093148Y0032989D01*
X0093148Y0033756D02*
X0095450Y0033756D01*
X0095450Y0035291D01*
X0095450Y0036058D02*
X0095450Y0037593D01*
X0095450Y0038360D02*
X0095450Y0039895D01*
X0095450Y0040662D02*
X0093148Y0040662D01*
X0093148Y0041813D01*
X0093532Y0042197D01*
X0094299Y0042197D01*
X0094683Y0041813D01*
X0094683Y0040662D01*
X0094683Y0041429D02*
X0095450Y0042197D01*
X0094299Y0039127D02*
X0094299Y0038360D01*
X0093148Y0038360D02*
X0095450Y0038360D01*
X0095450Y0036058D02*
X0093148Y0036058D01*
X0093148Y0038360D02*
X0093148Y0039895D01*
X0087950Y0039127D02*
X0087950Y0040662D01*
X0087950Y0041429D02*
X0086415Y0041429D01*
X0085648Y0042197D01*
X0086415Y0042964D01*
X0087950Y0042964D01*
X0087950Y0043731D02*
X0085648Y0043731D01*
X0086799Y0044115D02*
X0087950Y0045266D01*
X0087566Y0046033D02*
X0087950Y0046417D01*
X0087950Y0047184D01*
X0087566Y0047568D01*
X0086032Y0047568D01*
X0085648Y0047184D01*
X0085648Y0046417D01*
X0086032Y0046033D01*
X0087566Y0046033D01*
X0085648Y0045266D02*
X0087183Y0043731D01*
X0086799Y0042964D02*
X0086799Y0041429D01*
X0085648Y0040662D02*
X0085648Y0039127D01*
X0087950Y0039127D01*
X0087950Y0038360D02*
X0087183Y0037593D01*
X0087183Y0037976D02*
X0087183Y0036825D01*
X0087183Y0036058D02*
X0087566Y0036058D01*
X0087950Y0035674D01*
X0087950Y0034523D01*
X0085648Y0034523D01*
X0085648Y0035674D01*
X0086032Y0036058D01*
X0086415Y0036058D01*
X0086799Y0035674D01*
X0086799Y0034523D01*
X0086799Y0035674D02*
X0087183Y0036058D01*
X0087950Y0036825D02*
X0085648Y0036825D01*
X0085648Y0037976D01*
X0086032Y0038360D01*
X0086799Y0038360D01*
X0087183Y0037976D01*
X0086799Y0039127D02*
X0086799Y0039895D01*
X0089782Y0033756D02*
X0089398Y0033372D01*
X0089398Y0032605D01*
X0089782Y0032222D01*
X0091316Y0032222D01*
X0091700Y0032605D01*
X0091700Y0033372D01*
X0091316Y0033756D01*
X0091316Y0031454D02*
X0089782Y0031454D01*
X0089398Y0031071D01*
X0089398Y0029920D01*
X0091700Y0029920D01*
X0091700Y0031071D01*
X0091316Y0031454D01*
X0090933Y0029152D02*
X0089398Y0029152D01*
X0089398Y0027618D02*
X0090933Y0027618D01*
X0091700Y0028385D01*
X0090933Y0029152D01*
X0087950Y0028769D02*
X0087950Y0027618D01*
X0085648Y0027618D01*
X0085648Y0028769D01*
X0086032Y0029152D01*
X0087566Y0029152D01*
X0087950Y0028769D01*
X0086799Y0029920D02*
X0086799Y0031454D01*
X0085648Y0031071D02*
X0086799Y0029920D01*
X0087950Y0031071D02*
X0085648Y0031071D01*
X0086799Y0026850D02*
X0086799Y0025316D01*
X0084200Y0024548D02*
X0084200Y0023014D01*
X0081898Y0023014D01*
X0082282Y0022246D02*
X0081898Y0021863D01*
X0081898Y0021095D01*
X0082282Y0020712D01*
X0083816Y0020712D01*
X0084200Y0021095D01*
X0084200Y0021863D01*
X0083816Y0022246D01*
X0082282Y0022246D01*
X0081898Y0019944D02*
X0084200Y0019944D01*
X0081898Y0018410D01*
X0084200Y0018410D01*
X0084200Y0017642D02*
X0084200Y0016108D01*
X0081898Y0016108D01*
X0081898Y0017642D01*
X0083049Y0016875D02*
X0083049Y0016108D01*
X0083049Y0015341D02*
X0083049Y0013806D01*
X0084200Y0013806D02*
X0081898Y0013806D01*
X0081898Y0015341D02*
X0084200Y0015341D01*
X0086032Y0013039D02*
X0085648Y0012655D01*
X0085648Y0011888D01*
X0087950Y0010737D02*
X0087950Y0009202D01*
X0085648Y0009202D01*
X0086032Y0008435D02*
X0085648Y0008051D01*
X0085648Y0006900D01*
X0087950Y0006900D01*
X0087950Y0008051D01*
X0087566Y0008435D01*
X0086032Y0008435D01*
X0084200Y0006900D02*
X0082665Y0006900D01*
X0081898Y0007667D01*
X0083049Y0006900D02*
X0083049Y0008435D01*
X0089398Y0007667D02*
X0091700Y0007667D01*
X0091700Y0006900D02*
X0091700Y0008435D01*
X0091700Y0009202D02*
X0091700Y0009586D01*
X0091316Y0009586D01*
X0091316Y0009202D01*
X0091700Y0009202D01*
X0091316Y0010353D02*
X0090933Y0010353D01*
X0090549Y0010737D01*
X0090549Y0011504D01*
X0090933Y0011888D01*
X0091316Y0011888D01*
X0091700Y0011504D01*
X0091700Y0010737D01*
X0091316Y0010353D01*
X0090549Y0010737D02*
X0090165Y0010353D01*
X0089782Y0010353D01*
X0089398Y0010737D01*
X0089398Y0011504D01*
X0089782Y0011888D01*
X0090165Y0011888D01*
X0090549Y0011504D01*
X0093148Y0011888D02*
X0093532Y0011504D01*
X0093148Y0011888D02*
X0093148Y0012655D01*
X0093532Y0013039D01*
X0093915Y0013039D01*
X0095450Y0011504D01*
X0095450Y0013039D01*
X0095066Y0013806D02*
X0095450Y0014190D01*
X0095450Y0014957D01*
X0095066Y0015341D01*
X0093532Y0015341D01*
X0095066Y0013806D01*
X0093532Y0013806D01*
X0093148Y0014190D01*
X0093148Y0014957D01*
X0093532Y0015341D01*
X0090549Y0014957D02*
X0090549Y0016491D01*
X0093532Y0010737D02*
X0093148Y0010353D01*
X0093148Y0009586D01*
X0093532Y0009202D01*
X0095066Y0009202D01*
X0093532Y0010737D01*
X0095066Y0010737D01*
X0095450Y0010353D01*
X0095450Y0009586D01*
X0095066Y0009202D01*
X0095450Y0008435D02*
X0095450Y0006900D01*
X0093915Y0008435D01*
X0093532Y0008435D01*
X0093148Y0008051D01*
X0093148Y0007284D01*
X0093532Y0006900D01*
X0090165Y0006900D02*
X0089398Y0007667D01*
X0087566Y0048335D02*
X0085648Y0048335D01*
X0085648Y0049870D02*
X0087566Y0049870D01*
X0087950Y0049486D01*
X0087950Y0048719D01*
X0087566Y0048335D01*
X0085648Y0050637D02*
X0085648Y0052172D01*
X0085648Y0051404D02*
X0087950Y0051404D01*
D11*
X0001800Y0001800D02*
X0001800Y0126800D01*
X0101800Y0126800D01*
X0101800Y0001800D01*
X0001800Y0001800D01*
X0014050Y0109300D02*
X0014052Y0109461D01*
X0014058Y0109621D01*
X0014068Y0109782D01*
X0014082Y0109942D01*
X0014100Y0110102D01*
X0014121Y0110261D01*
X0014147Y0110420D01*
X0014177Y0110578D01*
X0014210Y0110735D01*
X0014248Y0110892D01*
X0014289Y0111047D01*
X0014334Y0111201D01*
X0014383Y0111354D01*
X0014436Y0111506D01*
X0014492Y0111657D01*
X0014553Y0111806D01*
X0014616Y0111954D01*
X0014684Y0112100D01*
X0014755Y0112244D01*
X0014829Y0112386D01*
X0014907Y0112527D01*
X0014989Y0112665D01*
X0015074Y0112802D01*
X0015162Y0112936D01*
X0015254Y0113068D01*
X0015349Y0113198D01*
X0015447Y0113326D01*
X0015548Y0113451D01*
X0015652Y0113573D01*
X0015759Y0113693D01*
X0015869Y0113810D01*
X0015982Y0113925D01*
X0016098Y0114036D01*
X0016217Y0114145D01*
X0016338Y0114250D01*
X0016462Y0114353D01*
X0016588Y0114453D01*
X0016716Y0114549D01*
X0016847Y0114642D01*
X0016981Y0114732D01*
X0017116Y0114819D01*
X0017254Y0114902D01*
X0017393Y0114982D01*
X0017535Y0115058D01*
X0017678Y0115131D01*
X0017823Y0115200D01*
X0017970Y0115266D01*
X0018118Y0115328D01*
X0018268Y0115386D01*
X0018419Y0115441D01*
X0018572Y0115492D01*
X0018726Y0115539D01*
X0018881Y0115582D01*
X0019037Y0115621D01*
X0019193Y0115657D01*
X0019351Y0115688D01*
X0019509Y0115716D01*
X0019668Y0115740D01*
X0019828Y0115760D01*
X0019988Y0115776D01*
X0020148Y0115788D01*
X0020309Y0115796D01*
X0020470Y0115800D01*
X0020630Y0115800D01*
X0020791Y0115796D01*
X0020952Y0115788D01*
X0021112Y0115776D01*
X0021272Y0115760D01*
X0021432Y0115740D01*
X0021591Y0115716D01*
X0021749Y0115688D01*
X0021907Y0115657D01*
X0022063Y0115621D01*
X0022219Y0115582D01*
X0022374Y0115539D01*
X0022528Y0115492D01*
X0022681Y0115441D01*
X0022832Y0115386D01*
X0022982Y0115328D01*
X0023130Y0115266D01*
X0023277Y0115200D01*
X0023422Y0115131D01*
X0023565Y0115058D01*
X0023707Y0114982D01*
X0023846Y0114902D01*
X0023984Y0114819D01*
X0024119Y0114732D01*
X0024253Y0114642D01*
X0024384Y0114549D01*
X0024512Y0114453D01*
X0024638Y0114353D01*
X0024762Y0114250D01*
X0024883Y0114145D01*
X0025002Y0114036D01*
X0025118Y0113925D01*
X0025231Y0113810D01*
X0025341Y0113693D01*
X0025448Y0113573D01*
X0025552Y0113451D01*
X0025653Y0113326D01*
X0025751Y0113198D01*
X0025846Y0113068D01*
X0025938Y0112936D01*
X0026026Y0112802D01*
X0026111Y0112665D01*
X0026193Y0112527D01*
X0026271Y0112386D01*
X0026345Y0112244D01*
X0026416Y0112100D01*
X0026484Y0111954D01*
X0026547Y0111806D01*
X0026608Y0111657D01*
X0026664Y0111506D01*
X0026717Y0111354D01*
X0026766Y0111201D01*
X0026811Y0111047D01*
X0026852Y0110892D01*
X0026890Y0110735D01*
X0026923Y0110578D01*
X0026953Y0110420D01*
X0026979Y0110261D01*
X0027000Y0110102D01*
X0027018Y0109942D01*
X0027032Y0109782D01*
X0027042Y0109621D01*
X0027048Y0109461D01*
X0027050Y0109300D01*
X0027048Y0109139D01*
X0027042Y0108979D01*
X0027032Y0108818D01*
X0027018Y0108658D01*
X0027000Y0108498D01*
X0026979Y0108339D01*
X0026953Y0108180D01*
X0026923Y0108022D01*
X0026890Y0107865D01*
X0026852Y0107708D01*
X0026811Y0107553D01*
X0026766Y0107399D01*
X0026717Y0107246D01*
X0026664Y0107094D01*
X0026608Y0106943D01*
X0026547Y0106794D01*
X0026484Y0106646D01*
X0026416Y0106500D01*
X0026345Y0106356D01*
X0026271Y0106214D01*
X0026193Y0106073D01*
X0026111Y0105935D01*
X0026026Y0105798D01*
X0025938Y0105664D01*
X0025846Y0105532D01*
X0025751Y0105402D01*
X0025653Y0105274D01*
X0025552Y0105149D01*
X0025448Y0105027D01*
X0025341Y0104907D01*
X0025231Y0104790D01*
X0025118Y0104675D01*
X0025002Y0104564D01*
X0024883Y0104455D01*
X0024762Y0104350D01*
X0024638Y0104247D01*
X0024512Y0104147D01*
X0024384Y0104051D01*
X0024253Y0103958D01*
X0024119Y0103868D01*
X0023984Y0103781D01*
X0023846Y0103698D01*
X0023707Y0103618D01*
X0023565Y0103542D01*
X0023422Y0103469D01*
X0023277Y0103400D01*
X0023130Y0103334D01*
X0022982Y0103272D01*
X0022832Y0103214D01*
X0022681Y0103159D01*
X0022528Y0103108D01*
X0022374Y0103061D01*
X0022219Y0103018D01*
X0022063Y0102979D01*
X0021907Y0102943D01*
X0021749Y0102912D01*
X0021591Y0102884D01*
X0021432Y0102860D01*
X0021272Y0102840D01*
X0021112Y0102824D01*
X0020952Y0102812D01*
X0020791Y0102804D01*
X0020630Y0102800D01*
X0020470Y0102800D01*
X0020309Y0102804D01*
X0020148Y0102812D01*
X0019988Y0102824D01*
X0019828Y0102840D01*
X0019668Y0102860D01*
X0019509Y0102884D01*
X0019351Y0102912D01*
X0019193Y0102943D01*
X0019037Y0102979D01*
X0018881Y0103018D01*
X0018726Y0103061D01*
X0018572Y0103108D01*
X0018419Y0103159D01*
X0018268Y0103214D01*
X0018118Y0103272D01*
X0017970Y0103334D01*
X0017823Y0103400D01*
X0017678Y0103469D01*
X0017535Y0103542D01*
X0017393Y0103618D01*
X0017254Y0103698D01*
X0017116Y0103781D01*
X0016981Y0103868D01*
X0016847Y0103958D01*
X0016716Y0104051D01*
X0016588Y0104147D01*
X0016462Y0104247D01*
X0016338Y0104350D01*
X0016217Y0104455D01*
X0016098Y0104564D01*
X0015982Y0104675D01*
X0015869Y0104790D01*
X0015759Y0104907D01*
X0015652Y0105027D01*
X0015548Y0105149D01*
X0015447Y0105274D01*
X0015349Y0105402D01*
X0015254Y0105532D01*
X0015162Y0105664D01*
X0015074Y0105798D01*
X0014989Y0105935D01*
X0014907Y0106073D01*
X0014829Y0106214D01*
X0014755Y0106356D01*
X0014684Y0106500D01*
X0014616Y0106646D01*
X0014553Y0106794D01*
X0014492Y0106943D01*
X0014436Y0107094D01*
X0014383Y0107246D01*
X0014334Y0107399D01*
X0014289Y0107553D01*
X0014248Y0107708D01*
X0014210Y0107865D01*
X0014177Y0108022D01*
X0014147Y0108180D01*
X0014121Y0108339D01*
X0014100Y0108498D01*
X0014082Y0108658D01*
X0014068Y0108818D01*
X0014058Y0108979D01*
X0014052Y0109139D01*
X0014050Y0109300D01*
X0076550Y0109300D02*
X0076552Y0109461D01*
X0076558Y0109621D01*
X0076568Y0109782D01*
X0076582Y0109942D01*
X0076600Y0110102D01*
X0076621Y0110261D01*
X0076647Y0110420D01*
X0076677Y0110578D01*
X0076710Y0110735D01*
X0076748Y0110892D01*
X0076789Y0111047D01*
X0076834Y0111201D01*
X0076883Y0111354D01*
X0076936Y0111506D01*
X0076992Y0111657D01*
X0077053Y0111806D01*
X0077116Y0111954D01*
X0077184Y0112100D01*
X0077255Y0112244D01*
X0077329Y0112386D01*
X0077407Y0112527D01*
X0077489Y0112665D01*
X0077574Y0112802D01*
X0077662Y0112936D01*
X0077754Y0113068D01*
X0077849Y0113198D01*
X0077947Y0113326D01*
X0078048Y0113451D01*
X0078152Y0113573D01*
X0078259Y0113693D01*
X0078369Y0113810D01*
X0078482Y0113925D01*
X0078598Y0114036D01*
X0078717Y0114145D01*
X0078838Y0114250D01*
X0078962Y0114353D01*
X0079088Y0114453D01*
X0079216Y0114549D01*
X0079347Y0114642D01*
X0079481Y0114732D01*
X0079616Y0114819D01*
X0079754Y0114902D01*
X0079893Y0114982D01*
X0080035Y0115058D01*
X0080178Y0115131D01*
X0080323Y0115200D01*
X0080470Y0115266D01*
X0080618Y0115328D01*
X0080768Y0115386D01*
X0080919Y0115441D01*
X0081072Y0115492D01*
X0081226Y0115539D01*
X0081381Y0115582D01*
X0081537Y0115621D01*
X0081693Y0115657D01*
X0081851Y0115688D01*
X0082009Y0115716D01*
X0082168Y0115740D01*
X0082328Y0115760D01*
X0082488Y0115776D01*
X0082648Y0115788D01*
X0082809Y0115796D01*
X0082970Y0115800D01*
X0083130Y0115800D01*
X0083291Y0115796D01*
X0083452Y0115788D01*
X0083612Y0115776D01*
X0083772Y0115760D01*
X0083932Y0115740D01*
X0084091Y0115716D01*
X0084249Y0115688D01*
X0084407Y0115657D01*
X0084563Y0115621D01*
X0084719Y0115582D01*
X0084874Y0115539D01*
X0085028Y0115492D01*
X0085181Y0115441D01*
X0085332Y0115386D01*
X0085482Y0115328D01*
X0085630Y0115266D01*
X0085777Y0115200D01*
X0085922Y0115131D01*
X0086065Y0115058D01*
X0086207Y0114982D01*
X0086346Y0114902D01*
X0086484Y0114819D01*
X0086619Y0114732D01*
X0086753Y0114642D01*
X0086884Y0114549D01*
X0087012Y0114453D01*
X0087138Y0114353D01*
X0087262Y0114250D01*
X0087383Y0114145D01*
X0087502Y0114036D01*
X0087618Y0113925D01*
X0087731Y0113810D01*
X0087841Y0113693D01*
X0087948Y0113573D01*
X0088052Y0113451D01*
X0088153Y0113326D01*
X0088251Y0113198D01*
X0088346Y0113068D01*
X0088438Y0112936D01*
X0088526Y0112802D01*
X0088611Y0112665D01*
X0088693Y0112527D01*
X0088771Y0112386D01*
X0088845Y0112244D01*
X0088916Y0112100D01*
X0088984Y0111954D01*
X0089047Y0111806D01*
X0089108Y0111657D01*
X0089164Y0111506D01*
X0089217Y0111354D01*
X0089266Y0111201D01*
X0089311Y0111047D01*
X0089352Y0110892D01*
X0089390Y0110735D01*
X0089423Y0110578D01*
X0089453Y0110420D01*
X0089479Y0110261D01*
X0089500Y0110102D01*
X0089518Y0109942D01*
X0089532Y0109782D01*
X0089542Y0109621D01*
X0089548Y0109461D01*
X0089550Y0109300D01*
X0089548Y0109139D01*
X0089542Y0108979D01*
X0089532Y0108818D01*
X0089518Y0108658D01*
X0089500Y0108498D01*
X0089479Y0108339D01*
X0089453Y0108180D01*
X0089423Y0108022D01*
X0089390Y0107865D01*
X0089352Y0107708D01*
X0089311Y0107553D01*
X0089266Y0107399D01*
X0089217Y0107246D01*
X0089164Y0107094D01*
X0089108Y0106943D01*
X0089047Y0106794D01*
X0088984Y0106646D01*
X0088916Y0106500D01*
X0088845Y0106356D01*
X0088771Y0106214D01*
X0088693Y0106073D01*
X0088611Y0105935D01*
X0088526Y0105798D01*
X0088438Y0105664D01*
X0088346Y0105532D01*
X0088251Y0105402D01*
X0088153Y0105274D01*
X0088052Y0105149D01*
X0087948Y0105027D01*
X0087841Y0104907D01*
X0087731Y0104790D01*
X0087618Y0104675D01*
X0087502Y0104564D01*
X0087383Y0104455D01*
X0087262Y0104350D01*
X0087138Y0104247D01*
X0087012Y0104147D01*
X0086884Y0104051D01*
X0086753Y0103958D01*
X0086619Y0103868D01*
X0086484Y0103781D01*
X0086346Y0103698D01*
X0086207Y0103618D01*
X0086065Y0103542D01*
X0085922Y0103469D01*
X0085777Y0103400D01*
X0085630Y0103334D01*
X0085482Y0103272D01*
X0085332Y0103214D01*
X0085181Y0103159D01*
X0085028Y0103108D01*
X0084874Y0103061D01*
X0084719Y0103018D01*
X0084563Y0102979D01*
X0084407Y0102943D01*
X0084249Y0102912D01*
X0084091Y0102884D01*
X0083932Y0102860D01*
X0083772Y0102840D01*
X0083612Y0102824D01*
X0083452Y0102812D01*
X0083291Y0102804D01*
X0083130Y0102800D01*
X0082970Y0102800D01*
X0082809Y0102804D01*
X0082648Y0102812D01*
X0082488Y0102824D01*
X0082328Y0102840D01*
X0082168Y0102860D01*
X0082009Y0102884D01*
X0081851Y0102912D01*
X0081693Y0102943D01*
X0081537Y0102979D01*
X0081381Y0103018D01*
X0081226Y0103061D01*
X0081072Y0103108D01*
X0080919Y0103159D01*
X0080768Y0103214D01*
X0080618Y0103272D01*
X0080470Y0103334D01*
X0080323Y0103400D01*
X0080178Y0103469D01*
X0080035Y0103542D01*
X0079893Y0103618D01*
X0079754Y0103698D01*
X0079616Y0103781D01*
X0079481Y0103868D01*
X0079347Y0103958D01*
X0079216Y0104051D01*
X0079088Y0104147D01*
X0078962Y0104247D01*
X0078838Y0104350D01*
X0078717Y0104455D01*
X0078598Y0104564D01*
X0078482Y0104675D01*
X0078369Y0104790D01*
X0078259Y0104907D01*
X0078152Y0105027D01*
X0078048Y0105149D01*
X0077947Y0105274D01*
X0077849Y0105402D01*
X0077754Y0105532D01*
X0077662Y0105664D01*
X0077574Y0105798D01*
X0077489Y0105935D01*
X0077407Y0106073D01*
X0077329Y0106214D01*
X0077255Y0106356D01*
X0077184Y0106500D01*
X0077116Y0106646D01*
X0077053Y0106794D01*
X0076992Y0106943D01*
X0076936Y0107094D01*
X0076883Y0107246D01*
X0076834Y0107399D01*
X0076789Y0107553D01*
X0076748Y0107708D01*
X0076710Y0107865D01*
X0076677Y0108022D01*
X0076647Y0108180D01*
X0076621Y0108339D01*
X0076600Y0108498D01*
X0076582Y0108658D01*
X0076568Y0108818D01*
X0076558Y0108979D01*
X0076552Y0109139D01*
X0076550Y0109300D01*
D12*
X0062200Y0112802D02*
X0062200Y0113119D01*
X0061883Y0113436D01*
X0060298Y0113436D01*
X0060298Y0113119D02*
X0060298Y0113753D01*
X0060298Y0114695D02*
X0060298Y0115646D01*
X0060615Y0115963D01*
X0061249Y0115963D01*
X0061566Y0115646D01*
X0061566Y0114695D01*
X0062200Y0114695D02*
X0060298Y0114695D01*
X0060615Y0116905D02*
X0060298Y0117222D01*
X0060298Y0117856D01*
X0060615Y0118173D01*
X0060932Y0118173D01*
X0061249Y0117856D01*
X0061566Y0118173D01*
X0061883Y0118173D01*
X0062200Y0117856D01*
X0062200Y0117222D01*
X0061883Y0116905D01*
X0061249Y0117539D02*
X0061249Y0117856D01*
X0062200Y0112802D02*
X0061883Y0112485D01*
X0060733Y0105818D02*
X0061050Y0105501D01*
X0061050Y0104867D01*
X0060733Y0104550D01*
X0060099Y0105184D02*
X0060099Y0105501D01*
X0060416Y0105818D01*
X0060733Y0105818D01*
X0060099Y0105501D02*
X0059782Y0105818D01*
X0059465Y0105818D01*
X0059148Y0105501D01*
X0059148Y0104867D01*
X0059465Y0104550D01*
X0059465Y0103608D02*
X0060099Y0103608D01*
X0060416Y0103291D01*
X0060416Y0102340D01*
X0060416Y0102974D02*
X0061050Y0103608D01*
X0061050Y0102340D02*
X0059148Y0102340D01*
X0059148Y0103291D01*
X0059465Y0103608D01*
X0051883Y0112485D02*
X0052200Y0112802D01*
X0052200Y0113119D01*
X0051883Y0113436D01*
X0050298Y0113436D01*
X0050298Y0113119D02*
X0050298Y0113753D01*
X0050298Y0114695D02*
X0050298Y0115646D01*
X0050615Y0115963D01*
X0051249Y0115963D01*
X0051566Y0115646D01*
X0051566Y0114695D01*
X0052200Y0114695D02*
X0050298Y0114695D01*
X0050932Y0116905D02*
X0050298Y0117539D01*
X0052200Y0117539D01*
X0052200Y0116905D02*
X0052200Y0118173D01*
X0051050Y0105818D02*
X0051050Y0104550D01*
X0051050Y0105184D02*
X0049148Y0105184D01*
X0049782Y0104550D01*
X0049465Y0103608D02*
X0050099Y0103608D01*
X0050416Y0103291D01*
X0050416Y0102340D01*
X0050416Y0102974D02*
X0051050Y0103608D01*
X0051050Y0102340D02*
X0049148Y0102340D01*
X0049148Y0103291D01*
X0049465Y0103608D01*
X0041883Y0112485D02*
X0042200Y0112802D01*
X0042200Y0113119D01*
X0041883Y0113436D01*
X0040298Y0113436D01*
X0040298Y0113119D02*
X0040298Y0113753D01*
X0040298Y0114695D02*
X0040298Y0115646D01*
X0040615Y0115963D01*
X0041249Y0115963D01*
X0041566Y0115646D01*
X0041566Y0114695D01*
X0042200Y0114695D02*
X0040298Y0114695D01*
X0040615Y0116905D02*
X0040298Y0117222D01*
X0040298Y0117856D01*
X0040615Y0118173D01*
X0040932Y0118173D01*
X0042200Y0116905D01*
X0042200Y0118173D01*
X0041050Y0105818D02*
X0041050Y0104550D01*
X0039782Y0105818D01*
X0039465Y0105818D01*
X0039148Y0105501D01*
X0039148Y0104867D01*
X0039465Y0104550D01*
X0039465Y0103608D02*
X0039148Y0103291D01*
X0039148Y0102340D01*
X0041050Y0102340D01*
X0040416Y0102340D02*
X0040416Y0103291D01*
X0040099Y0103608D01*
X0039465Y0103608D01*
X0040416Y0102974D02*
X0041050Y0103608D01*
X0029050Y0092278D02*
X0029050Y0091010D01*
X0029050Y0091644D02*
X0027148Y0091644D01*
X0027782Y0091010D01*
X0027148Y0090068D02*
X0027148Y0089434D01*
X0027148Y0089751D02*
X0028733Y0089751D01*
X0029050Y0089434D01*
X0029050Y0089117D01*
X0028733Y0088800D01*
X0022483Y0076568D02*
X0022800Y0076251D01*
X0022800Y0075617D01*
X0022483Y0075300D01*
X0021849Y0075934D02*
X0021849Y0076251D01*
X0022166Y0076568D01*
X0022483Y0076568D01*
X0021849Y0076251D02*
X0021532Y0076568D01*
X0021215Y0076568D01*
X0020898Y0076251D01*
X0020898Y0075617D01*
X0021215Y0075300D01*
X0021215Y0074358D02*
X0020898Y0074041D01*
X0020898Y0073407D01*
X0021215Y0073090D01*
X0022483Y0073090D01*
X0022800Y0073407D01*
X0022800Y0074041D01*
X0022483Y0074358D01*
X0027365Y0066568D02*
X0027048Y0066251D01*
X0027048Y0065617D01*
X0027365Y0065300D01*
X0027365Y0064358D02*
X0027048Y0064041D01*
X0027048Y0063407D01*
X0027365Y0063090D01*
X0028633Y0063090D01*
X0028950Y0063407D01*
X0028950Y0064041D01*
X0028633Y0064358D01*
X0028950Y0065300D02*
X0027682Y0066568D01*
X0027365Y0066568D01*
X0028950Y0066568D02*
X0028950Y0065300D01*
X0028950Y0056568D02*
X0028950Y0055300D01*
X0028950Y0055934D02*
X0027048Y0055934D01*
X0027682Y0055300D01*
X0027365Y0054358D02*
X0027048Y0054041D01*
X0027048Y0053407D01*
X0027365Y0053090D01*
X0028633Y0053090D01*
X0028950Y0053407D01*
X0028950Y0054041D01*
X0028633Y0054358D01*
X0038050Y0050550D02*
X0063050Y0050550D01*
X0063050Y0010550D01*
X0038050Y0010550D01*
X0038050Y0050550D01*
X0017499Y0020673D02*
X0017499Y0019405D01*
X0016548Y0020356D01*
X0018450Y0020356D01*
X0017499Y0018463D02*
X0017816Y0018146D01*
X0017816Y0017195D01*
X0018450Y0017195D02*
X0016548Y0017195D01*
X0016548Y0018146D01*
X0016865Y0018463D01*
X0017499Y0018463D01*
X0016548Y0016253D02*
X0016548Y0015619D01*
X0016548Y0015936D02*
X0018133Y0015936D01*
X0018450Y0015619D01*
X0018450Y0015302D01*
X0018133Y0014985D01*
X0058348Y0014858D02*
X0059933Y0014858D01*
X0060250Y0014541D01*
X0060250Y0013907D01*
X0059933Y0013590D01*
X0058348Y0013590D01*
X0058982Y0015800D02*
X0058348Y0016434D01*
X0060250Y0016434D01*
X0060250Y0015800D02*
X0060250Y0017068D01*
X0064550Y0008050D02*
X0064552Y0008113D01*
X0064558Y0008175D01*
X0064568Y0008237D01*
X0064581Y0008299D01*
X0064599Y0008359D01*
X0064620Y0008418D01*
X0064645Y0008476D01*
X0064674Y0008532D01*
X0064706Y0008586D01*
X0064741Y0008638D01*
X0064779Y0008687D01*
X0064821Y0008735D01*
X0064865Y0008779D01*
X0064913Y0008821D01*
X0064962Y0008859D01*
X0065014Y0008894D01*
X0065068Y0008926D01*
X0065124Y0008955D01*
X0065182Y0008980D01*
X0065241Y0009001D01*
X0065301Y0009019D01*
X0065363Y0009032D01*
X0065425Y0009042D01*
X0065487Y0009048D01*
X0065550Y0009050D01*
X0065613Y0009048D01*
X0065675Y0009042D01*
X0065737Y0009032D01*
X0065799Y0009019D01*
X0065859Y0009001D01*
X0065918Y0008980D01*
X0065976Y0008955D01*
X0066032Y0008926D01*
X0066086Y0008894D01*
X0066138Y0008859D01*
X0066187Y0008821D01*
X0066235Y0008779D01*
X0066279Y0008735D01*
X0066321Y0008687D01*
X0066359Y0008638D01*
X0066394Y0008586D01*
X0066426Y0008532D01*
X0066455Y0008476D01*
X0066480Y0008418D01*
X0066501Y0008359D01*
X0066519Y0008299D01*
X0066532Y0008237D01*
X0066542Y0008175D01*
X0066548Y0008113D01*
X0066550Y0008050D01*
X0066548Y0007987D01*
X0066542Y0007925D01*
X0066532Y0007863D01*
X0066519Y0007801D01*
X0066501Y0007741D01*
X0066480Y0007682D01*
X0066455Y0007624D01*
X0066426Y0007568D01*
X0066394Y0007514D01*
X0066359Y0007462D01*
X0066321Y0007413D01*
X0066279Y0007365D01*
X0066235Y0007321D01*
X0066187Y0007279D01*
X0066138Y0007241D01*
X0066086Y0007206D01*
X0066032Y0007174D01*
X0065976Y0007145D01*
X0065918Y0007120D01*
X0065859Y0007099D01*
X0065799Y0007081D01*
X0065737Y0007068D01*
X0065675Y0007058D01*
X0065613Y0007052D01*
X0065550Y0007050D01*
X0065487Y0007052D01*
X0065425Y0007058D01*
X0065363Y0007068D01*
X0065301Y0007081D01*
X0065241Y0007099D01*
X0065182Y0007120D01*
X0065124Y0007145D01*
X0065068Y0007174D01*
X0065014Y0007206D01*
X0064962Y0007241D01*
X0064913Y0007279D01*
X0064865Y0007321D01*
X0064821Y0007365D01*
X0064779Y0007413D01*
X0064741Y0007462D01*
X0064706Y0007514D01*
X0064674Y0007568D01*
X0064645Y0007624D01*
X0064620Y0007682D01*
X0064599Y0007741D01*
X0064581Y0007801D01*
X0064568Y0007863D01*
X0064558Y0007925D01*
X0064552Y0007987D01*
X0064550Y0008050D01*
D13*
X0043800Y0076300D02*
X0043800Y0082300D01*
X0043050Y0088050D02*
X0040550Y0090550D01*
X0038050Y0088050D01*
X0033050Y0088050D01*
X0030550Y0090550D01*
X0030550Y0095550D01*
X0033050Y0098050D01*
X0038050Y0098050D01*
X0040550Y0095550D01*
X0043050Y0098050D01*
X0048050Y0098050D01*
X0050550Y0095550D01*
X0053050Y0098050D01*
X0058050Y0098050D01*
X0060550Y0095550D01*
X0063050Y0098050D01*
X0068050Y0098050D01*
X0070550Y0095550D01*
X0073050Y0098050D01*
X0078050Y0098050D01*
X0080550Y0095550D01*
X0080550Y0090550D01*
X0078050Y0088050D01*
X0073050Y0088050D01*
X0070550Y0090550D01*
X0068050Y0088050D01*
X0063050Y0088050D01*
X0060550Y0090550D01*
X0058050Y0088050D01*
X0053050Y0088050D01*
X0050550Y0090550D01*
X0048050Y0088050D01*
X0043050Y0088050D01*
M02*
