<svg version="1.1" xmlns="http://www.w3.org/2000/svg" xmlns:xlink="http://www.w3.org/1999/xlink" stroke-linecap="round" stroke-linejoin="round" stroke-width="0" fill-rule="evenodd" width="0.763in" height="1.1035in" viewBox="136.5 114.5 763 1103.5" id="SoHYPoj1sygaP0NmOlXm"><defs><rect x="-25.655" y="-23.685" width="51.31" height="47.37" id="SoHYPoj1sygaP0NmOlXm_pad-10"/><circle cx="0" cy="0" r="41" id="SoHYPoj1sygaP0NmOlXm_pad-11"/><rect x="-29" y="-17" width="58" height="34" id="SoHYPoj1sygaP0NmOlXm_pad-12"/><rect x="-23.685" y="-25.655" width="47.37" height="51.31" id="SoHYPoj1sygaP0NmOlXm_pad-14"/><rect x="-43.5" y="-16" width="87" height="32" id="SoHYPoj1sygaP0NmOlXm_pad-15"/><circle cx="0" cy="0" r="69" id="SoHYPoj1sygaP0NmOlXm_pad-16"/><rect x="-31.56" y="-35.495" width="63.12" height="70.99" id="SoHYPoj1sygaP0NmOlXm_pad-17"/><circle cx="0" cy="0" r="29" id="SoHYPoj1sygaP0NmOlXm_pad-18"/></defs><g transform="translate(0,1332.5) scale(1,-1)" fill="currentColor" stroke="currentColor"><use xlink:href="#SoHYPoj1sygaP0NmOlXm_pad-10" x="334.54" y="580.5"/><use xlink:href="#SoHYPoj1sygaP0NmOlXm_pad-10" x="401.46" y="580.5"/><use xlink:href="#SoHYPoj1sygaP0NmOlXm_pad-10" x="401.46" y="680.5"/><use xlink:href="#SoHYPoj1sygaP0NmOlXm_pad-10" x="334.54" y="680.5"/><use xlink:href="#SoHYPoj1sygaP0NmOlXm_pad-11" x="355.5" y="930.5"/><use xlink:href="#SoHYPoj1sygaP0NmOlXm_pad-11" x="455.5" y="930.5"/><use xlink:href="#SoHYPoj1sygaP0NmOlXm_pad-11" x="555.5" y="930.5"/><use xlink:href="#SoHYPoj1sygaP0NmOlXm_pad-11" x="655.5" y="930.5"/><use xlink:href="#SoHYPoj1sygaP0NmOlXm_pad-11" x="755.5" y="930.5"/><use xlink:href="#SoHYPoj1sygaP0NmOlXm_pad-12" x="655.5" y="1160"/><use xlink:href="#SoHYPoj1sygaP0NmOlXm_pad-12" x="655.5" y="1201"/><use xlink:href="#SoHYPoj1sygaP0NmOlXm_pad-12" x="555.5" y="1201"/><use xlink:href="#SoHYPoj1sygaP0NmOlXm_pad-12" x="555.5" y="1160"/><use xlink:href="#SoHYPoj1sygaP0NmOlXm_pad-12" x="455.5" y="1160"/><use xlink:href="#SoHYPoj1sygaP0NmOlXm_pad-12" x="455.5" y="1201"/><use xlink:href="#SoHYPoj1sygaP0NmOlXm_pad-12" x="218" y="226"/><use xlink:href="#SoHYPoj1sygaP0NmOlXm_pad-12" x="218" y="185"/><path d="M 213 198 213 213 223 213 223 198 213 198 M 213 202.45 223 202.45 M 223 207.43 213 207.43 M 213 212.42 223 212.42 M 450.5 1173 450.5 1188 460.5 1188 460.5 1173 450.5 1173 M 450.5 1174.55 460.5 1174.55 M 460.5 1179.53 450.5 1179.53 M 450.5 1184.52 460.5 1184.52 M 550.5 1184.52 560.5 1184.52 M 560.5 1188 550.5 1188 550.5 1173 560.5 1173 560.5 1188 M 560.5 1179.53 550.5 1179.53 M 550.5 1174.55 560.5 1174.55 M 650.5 1174.55 660.5 1174.55 M 660.5 1173 650.5 1173 650.5 1188 660.5 1188 660.5 1173 M 660.5 1179.53 650.5 1179.53 M 650.5 1184.52 660.5 1184.52" fill="none" stroke-width="5"/><use xlink:href="#SoHYPoj1sygaP0NmOlXm_pad-14" x="655.5" y="1101.46"/><use xlink:href="#SoHYPoj1sygaP0NmOlXm_pad-14" x="655.5" y="1034.54"/><use xlink:href="#SoHYPoj1sygaP0NmOlXm_pad-14" x="555.5" y="1034.54"/><use xlink:href="#SoHYPoj1sygaP0NmOlXm_pad-14" x="555.5" y="1101.46"/><use xlink:href="#SoHYPoj1sygaP0NmOlXm_pad-14" x="455.5" y="1101.46"/><use xlink:href="#SoHYPoj1sygaP0NmOlXm_pad-14" x="455.5" y="1034.54"/><use xlink:href="#SoHYPoj1sygaP0NmOlXm_pad-15" x="320.5" y="480.5"/><use xlink:href="#SoHYPoj1sygaP0NmOlXm_pad-15" x="320.5" y="430.5"/><use xlink:href="#SoHYPoj1sygaP0NmOlXm_pad-15" x="320.5" y="380.5"/><use xlink:href="#SoHYPoj1sygaP0NmOlXm_pad-15" x="320.5" y="330.5"/><use xlink:href="#SoHYPoj1sygaP0NmOlXm_pad-15" x="320.5" y="280.5"/><use xlink:href="#SoHYPoj1sygaP0NmOlXm_pad-15" x="320.5" y="230.5"/><use xlink:href="#SoHYPoj1sygaP0NmOlXm_pad-15" x="320.5" y="180.5"/><use xlink:href="#SoHYPoj1sygaP0NmOlXm_pad-15" x="320.5" y="130.5"/><use xlink:href="#SoHYPoj1sygaP0NmOlXm_pad-15" x="690.5" y="130.5"/><use xlink:href="#SoHYPoj1sygaP0NmOlXm_pad-15" x="690.5" y="180.5"/><use xlink:href="#SoHYPoj1sygaP0NmOlXm_pad-15" x="690.5" y="230.5"/><use xlink:href="#SoHYPoj1sygaP0NmOlXm_pad-15" x="690.5" y="280.5"/><use xlink:href="#SoHYPoj1sygaP0NmOlXm_pad-15" x="690.5" y="330.5"/><use xlink:href="#SoHYPoj1sygaP0NmOlXm_pad-15" x="690.5" y="380.5"/><use xlink:href="#SoHYPoj1sygaP0NmOlXm_pad-15" x="690.5" y="430.5"/><use xlink:href="#SoHYPoj1sygaP0NmOlXm_pad-15" x="690.5" y="480.5"/><use xlink:href="#SoHYPoj1sygaP0NmOlXm_pad-16" x="830.5" y="1093"/><use xlink:href="#SoHYPoj1sygaP0NmOlXm_pad-16" x="205.5" y="1093"/><use xlink:href="#SoHYPoj1sygaP0NmOlXm_pad-17" x="287.88" y="793"/><use xlink:href="#SoHYPoj1sygaP0NmOlXm_pad-17" x="398.12" y="793"/><use xlink:href="#SoHYPoj1sygaP0NmOlXm_pad-18" x="218" y="680.5"/><use xlink:href="#SoHYPoj1sygaP0NmOlXm_pad-18" x="218" y="580.5"/><use xlink:href="#SoHYPoj1sygaP0NmOlXm_pad-18" x="218" y="430.5"/><use xlink:href="#SoHYPoj1sygaP0NmOlXm_pad-18" x="193" y="793"/></g></svg>