<svg version="1.1" xmlns="http://www.w3.org/2000/svg" xmlns:xlink="http://www.w3.org/1999/xlink" stroke-linecap="round" stroke-linejoin="round" stroke-width="0" fill-rule="evenodd" clip-rule="evenodd" id="Pj2r8Wo9htyvbVQzJuKR_top" viewBox="18 18 1000 1250" width="1in" height="1.25in" class="w-100 h-100"><defs><style>.Pj2r8Wo9htyvbVQzJuKR_fr4 {color: #666666;}
.Pj2r8Wo9htyvbVQzJuKR_cu {color: #cccccc;}
.Pj2r8Wo9htyvbVQzJuKR_cf {color: #cc9933;}
.Pj2r8Wo9htyvbVQzJuKR_sm {color: #004200; opacity: 0.75;}
.Pj2r8Wo9htyvbVQzJuKR_ss {color: #ffffff;}
.Pj2r8Wo9htyvbVQzJuKR_sp {color: #999999;}
.Pj2r8Wo9htyvbVQzJuKR_out {color: #000000;}</style><rect x="-25.655" y="-23.685" width="51.31" height="47.37" id="SoHYPoj1sygaP0NmOlXm_pad-10"/><circle cx="0" cy="0" r="41" id="SoHYPoj1sygaP0NmOlXm_pad-11"/><rect x="-29" y="-17" width="58" height="34" id="SoHYPoj1sygaP0NmOlXm_pad-12"/><rect x="-23.685" y="-25.655" width="47.37" height="51.31" id="SoHYPoj1sygaP0NmOlXm_pad-14"/><rect x="-43.5" y="-16" width="87" height="32" id="SoHYPoj1sygaP0NmOlXm_pad-15"/><circle cx="0" cy="0" r="69" id="SoHYPoj1sygaP0NmOlXm_pad-16"/><rect x="-31.56" y="-35.495" width="63.12" height="70.99" id="SoHYPoj1sygaP0NmOlXm_pad-17"/><circle cx="0" cy="0" r="29" id="SoHYPoj1sygaP0NmOlXm_pad-18"/><rect x="-21.655" y="-19.685" width="43.31" height="39.37" id="jFfbUCjRCprYlE1g8kBb_pad-10"/><circle cx="0" cy="0" r="37" id="jFfbUCjRCprYlE1g8kBb_pad-11"/><rect x="-25" y="-13" width="50" height="26" id="jFfbUCjRCprYlE1g8kBb_pad-12"/><rect x="-19.685" y="-21.655" width="39.37" height="43.31" id="jFfbUCjRCprYlE1g8kBb_pad-14"/><rect x="-39.5" y="-12" width="79" height="24" id="jFfbUCjRCprYlE1g8kBb_pad-15"/><rect x="-27.56" y="-31.495" width="55.12" height="62.99" id="jFfbUCjRCprYlE1g8kBb_pad-16"/><circle cx="0" cy="0" r="25" id="jFfbUCjRCprYlE1g8kBb_pad-19"/><g id="Pj2r8Wo9htyvbVQzJuKR_top_silkscreen"><path d="M 818.98 76.67 826.65 84.35 842 84.35 M 842 92.02 818.98 92.02 826.65 99.69 818.98 107.37 842 107.37 M 842 115.04 818.98 115.04 818.98 126.55 822.82 130.39 830.49 130.39 834.33 126.55 834.33 115.04 M 856.48 118.88 860.32 115.04 875.66 115.04 879.5 118.88 879.5 126.55 875.66 130.39 M 867.99 138.06 867.99 153.41 M 856.48 161.08 879.5 161.08 879.5 176.42 M 875.66 184.1 860.32 184.1 856.48 187.93 856.48 195.61 860.32 199.44 875.66 184.1 879.5 187.93 879.5 195.61 875.66 199.44 860.32 199.44 M 860.32 207.12 856.48 210.95 856.48 218.63 860.32 222.46 864.15 222.46 879.5 207.12 879.5 222.46 M 879.5 230.14 879.5 241.65 875.66 245.48 860.32 245.48 856.48 241.65 856.48 230.14 879.5 230.14 M 897.82 237.81 893.98 245.48 M 897.82 237.81 905.49 230.14 905.49 241.65 909.33 245.48 913.16 245.48 917 241.65 917 233.97 913.16 230.14 905.49 230.14 M 913.16 222.46 917 222.46 917 218.63 913.16 218.63 913.16 222.46 M 913.16 210.95 909.33 210.95 905.49 207.12 905.49 203.28 M 905.49 207.12 901.65 210.95 897.82 210.95 893.98 207.12 893.98 199.44 897.82 195.61 M 913.16 195.61 917 199.44 917 207.12 913.16 210.95 M 931.48 210.95 931.48 218.63 935.32 222.46 950.66 222.46 954.5 218.63 954.5 210.95 950.66 207.12 935.32 207.12 931.48 210.95 M 931.48 199.44 931.48 184.1 M 931.48 191.77 954.5 191.77 M 954.5 230.14 931.48 230.14 931.48 241.65 935.32 245.48 950.66 245.48 954.5 241.65 954.5 230.14 M 954.5 253.16 954.5 264.67 950.66 268.5 935.32 268.5 931.48 264.67 931.48 253.16 954.5 253.16 M 954.5 299.2 931.48 299.2 939.15 306.87 931.48 314.54 954.5 314.54 M 954.5 322.22 954.5 329.89 M 954.5 326.05 931.48 326.05 M 931.48 322.22 931.48 329.89 M 931.48 337.56 954.5 337.56 954.5 352.91 M 954.5 360.58 954.5 375.93 M 954.5 383.6 954.5 398.95 M 954.5 406.62 931.48 406.62 931.48 418.13 935.32 421.97 942.99 421.97 946.83 418.13 946.83 406.62 M 946.83 414.29 954.5 421.97 M 942.99 391.27 942.99 383.6 M 931.48 383.6 954.5 383.6 M 954.5 360.58 931.48 360.58 M 931.48 383.6 931.48 398.95 M 879.5 391.27 879.5 406.62 M 879.5 414.29 864.15 414.29 856.48 421.97 864.15 429.64 879.5 429.64 M 879.5 437.31 856.48 437.31 M 867.99 441.15 879.5 452.66 M 875.66 460.33 879.5 464.17 879.5 471.84 875.66 475.68 860.32 475.68 856.48 471.84 856.48 464.17 860.32 460.33 875.66 460.33 M 856.48 452.66 871.83 437.31 M 867.99 429.64 867.99 414.29 M 856.48 406.62 856.48 391.27 879.5 391.27 M 879.5 383.6 871.83 375.93 M 871.83 379.76 871.83 368.25 M 871.83 360.58 875.66 360.58 879.5 356.74 879.5 345.23 856.48 345.23 856.48 356.74 860.32 360.58 864.15 360.58 867.99 356.74 867.99 345.23 M 867.99 356.74 871.83 360.58 M 879.5 368.25 856.48 368.25 856.48 379.76 860.32 383.6 867.99 383.6 871.83 379.76 M 867.99 391.27 867.99 398.95 M 897.82 337.56 893.98 333.72 893.98 326.05 897.82 322.22 913.16 322.22 917 326.05 917 333.72 913.16 337.56 M 913.16 314.54 897.82 314.54 893.98 310.71 893.98 299.2 917 299.2 917 310.71 913.16 314.54 M 909.33 291.52 893.98 291.52 M 893.98 276.18 909.33 276.18 917 283.85 909.33 291.52 M 879.5 287.69 879.5 276.18 856.48 276.18 856.48 287.69 860.32 291.52 875.66 291.52 879.5 287.69 M 867.99 299.2 867.99 314.54 M 856.48 310.71 867.99 299.2 M 879.5 310.71 856.48 310.71 M 867.99 268.5 867.99 253.16 M 842 245.48 842 230.14 818.98 230.14 M 822.82 222.46 818.98 218.63 818.98 210.95 822.82 207.12 838.16 207.12 842 210.95 842 218.63 838.16 222.46 822.82 222.46 M 818.98 199.44 842 199.44 818.98 184.1 842 184.1 M 842 176.42 842 161.08 818.98 161.08 818.98 176.42 M 830.49 168.75 830.49 161.08 M 830.49 153.41 830.49 138.06 M 842 138.06 818.98 138.06 M 818.98 153.41 842 153.41 M 860.32 130.39 856.48 126.55 856.48 118.88 M 879.5 107.37 879.5 92.02 856.48 92.02 M 860.32 84.35 856.48 80.51 856.48 69 879.5 69 879.5 80.51 875.66 84.35 860.32 84.35 M 842 69 826.65 69 818.98 76.67 M 830.49 69 830.49 84.35 M 893.98 76.67 917 76.67 M 917 69 917 84.35 M 917 92.02 917 95.86 913.16 95.86 913.16 92.02 917 92.02 M 913.16 103.53 909.33 103.53 905.49 107.37 905.49 115.04 909.33 118.88 913.16 118.88 917 115.04 917 107.37 913.16 103.53 M 905.49 107.37 901.65 103.53 897.82 103.53 893.98 107.37 893.98 115.04 897.82 118.88 901.65 118.88 905.49 115.04 M 931.48 118.88 935.32 115.04 M 931.48 118.88 931.48 126.55 935.32 130.39 939.15 130.39 954.5 115.04 954.5 130.39 M 950.66 138.06 954.5 141.9 954.5 149.57 950.66 153.41 935.32 153.41 950.66 138.06 935.32 138.06 931.48 141.9 931.48 149.57 935.32 153.41 M 905.49 149.57 905.49 164.91 M 935.32 107.37 931.48 103.53 931.48 95.86 935.32 92.02 950.66 92.02 935.32 107.37 950.66 107.37 954.5 103.53 954.5 95.86 950.66 92.02 M 954.5 84.35 954.5 69 939.15 84.35 935.32 84.35 931.48 80.51 931.48 72.84 935.32 69 M 901.65 69 893.98 76.67 M 875.66 483.35 856.48 483.35 M 856.48 498.7 875.66 498.7 879.5 494.86 879.5 487.19 875.66 483.35 M 856.48 506.37 856.48 521.72 M 856.48 514.04 879.5 514.04" fill="none" stroke-width="2"/><path d="M 18 18 18 1268 1018 1268 1018 18 18 18 M 140.5 1093 140.52 1094.61 140.58 1096.21 140.68 1097.82 140.82 1099.42 141 1101.02 141.21 1102.61 141.47 1104.2 141.77 1105.78 142.1 1107.35 142.48 1108.92 142.89 1110.47 143.34 1112.01 143.83 1113.54 144.36 1115.06 144.92 1116.57 145.53 1118.06 146.16 1119.54 146.84 1121 147.55 1122.44 148.29 1123.86 149.07 1125.27 149.89 1126.65 150.74 1128.02 151.62 1129.36 152.54 1130.68 153.49 1131.98 154.47 1133.26 155.48 1134.51 156.52 1135.73 157.59 1136.93 158.69 1138.1 159.82 1139.25 160.98 1140.36 162.17 1141.45 163.38 1142.5 164.62 1143.53 165.88 1144.53 167.16 1145.49 168.47 1146.42 169.81 1147.32 171.16 1148.19 172.54 1149.02 173.93 1149.82 175.35 1150.58 176.78 1151.31 178.23 1152 179.7 1152.66 181.18 1153.28 182.68 1153.86 184.19 1154.41 185.72 1154.92 187.26 1155.39 188.81 1155.82 190.37 1156.21 191.93 1156.57 193.51 1156.88 195.09 1157.16 196.68 1157.4 198.28 1157.6 199.88 1157.76 201.48 1157.88 203.09 1157.96 204.7 1158 206.3 1158 207.91 1157.96 209.52 1157.88 211.12 1157.76 212.72 1157.6 214.32 1157.4 215.91 1157.16 217.49 1156.88 219.07 1156.57 220.63 1156.21 222.19 1155.82 223.74 1155.39 225.28 1154.92 226.81 1154.41 228.32 1153.86 229.82 1153.28 231.3 1152.66 232.77 1152 234.22 1151.31 235.65 1150.58 237.07 1149.82 238.46 1149.02 239.84 1148.19 241.19 1147.32 242.53 1146.42 243.84 1145.49 245.12 1144.53 246.38 1143.53 247.62 1142.5 248.83 1141.45 250.02 1140.36 251.18 1139.25 252.31 1138.1 253.41 1136.93 254.48 1135.73 255.52 1134.51 256.53 1133.26 257.51 1131.98 258.46 1130.68 259.38 1129.36 260.26 1128.02 261.11 1126.65 261.93 1125.27 262.71 1123.86 263.45 1122.44 264.16 1121 264.84 1119.54 265.47 1118.06 266.08 1116.57 266.64 1115.06 267.17 1113.54 267.66 1112.01 268.11 1110.47 268.52 1108.92 268.9 1107.35 269.23 1105.78 269.53 1104.2 269.79 1102.61 270 1101.02 270.18 1099.42 270.32 1097.82 270.42 1096.21 270.48 1094.61 270.5 1093 270.48 1091.39 270.42 1089.79 270.32 1088.18 270.18 1086.58 270 1084.98 269.79 1083.39 269.53 1081.8 269.23 1080.22 268.9 1078.65 268.52 1077.08 268.11 1075.53 267.66 1073.99 267.17 1072.46 266.64 1070.94 266.08 1069.43 265.47 1067.94 264.84 1066.46 264.16 1065 263.45 1063.56 262.71 1062.14 261.93 1060.73 261.11 1059.35 260.26 1057.98 259.38 1056.64 258.46 1055.32 257.51 1054.02 256.53 1052.74 255.52 1051.49 254.48 1050.27 253.41 1049.07 252.31 1047.9 251.18 1046.75 250.02 1045.64 248.83 1044.55 247.62 1043.5 246.38 1042.47 245.12 1041.47 243.84 1040.51 242.53 1039.58 241.19 1038.68 239.84 1037.81 238.46 1036.98 237.07 1036.18 235.65 1035.42 234.22 1034.69 232.77 1034 231.3 1033.34 229.82 1032.72 228.32 1032.14 226.81 1031.59 225.28 1031.08 223.74 1030.61 222.19 1030.18 220.63 1029.79 219.07 1029.43 217.49 1029.12 215.91 1028.84 214.32 1028.6 212.72 1028.4 211.12 1028.24 209.52 1028.12 207.91 1028.04 206.3 1028 204.7 1028 203.09 1028.04 201.48 1028.12 199.88 1028.24 198.28 1028.4 196.68 1028.6 195.09 1028.84 193.51 1029.12 191.93 1029.43 190.37 1029.79 188.81 1030.18 187.26 1030.61 185.72 1031.08 184.19 1031.59 182.68 1032.14 181.18 1032.72 179.7 1033.34 178.23 1034 176.78 1034.69 175.35 1035.42 173.93 1036.18 172.54 1036.98 171.16 1037.81 169.81 1038.68 168.47 1039.58 167.16 1040.51 165.88 1041.47 164.62 1042.47 163.38 1043.5 162.17 1044.55 160.98 1045.64 159.82 1046.75 158.69 1047.9 157.59 1049.07 156.52 1050.27 155.48 1051.49 154.47 1052.74 153.49 1054.02 152.54 1055.32 151.62 1056.64 150.74 1057.98 149.89 1059.35 149.07 1060.73 148.29 1062.14 147.55 1063.56 146.84 1065 146.16 1066.46 145.53 1067.94 144.92 1069.43 144.36 1070.94 143.83 1072.46 143.34 1073.99 142.89 1075.53 142.48 1077.08 142.1 1078.65 141.77 1080.22 141.47 1081.8 141.21 1083.39 141 1084.98 140.82 1086.58 140.68 1088.18 140.58 1089.79 140.52 1091.39 140.5 1093 M 765.5 1093 765.52 1094.61 765.58 1096.21 765.68 1097.82 765.82 1099.42 766 1101.02 766.21 1102.61 766.47 1104.2 766.77 1105.78 767.1 1107.35 767.48 1108.92 767.89 1110.47 768.34 1112.01 768.83 1113.54 769.36 1115.06 769.92 1116.57 770.53 1118.06 771.16 1119.54 771.84 1121 772.55 1122.44 773.29 1123.86 774.07 1125.27 774.89 1126.65 775.74 1128.02 776.62 1129.36 777.54 1130.68 778.49 1131.98 779.47 1133.26 780.48 1134.51 781.52 1135.73 782.59 1136.93 783.69 1138.1 784.82 1139.25 785.98 1140.36 787.17 1141.45 788.38 1142.5 789.62 1143.53 790.88 1144.53 792.16 1145.49 793.47 1146.42 794.81 1147.32 796.16 1148.19 797.54 1149.02 798.93 1149.82 800.35 1150.58 801.78 1151.31 803.23 1152 804.7 1152.66 806.18 1153.28 807.68 1153.86 809.19 1154.41 810.72 1154.92 812.26 1155.39 813.81 1155.82 815.37 1156.21 816.93 1156.57 818.51 1156.88 820.09 1157.16 821.68 1157.4 823.28 1157.6 824.88 1157.76 826.48 1157.88 828.09 1157.96 829.7 1158 831.3 1158 832.91 1157.96 834.52 1157.88 836.12 1157.76 837.72 1157.6 839.32 1157.4 840.91 1157.16 842.49 1156.88 844.07 1156.57 845.63 1156.21 847.19 1155.82 848.74 1155.39 850.28 1154.92 851.81 1154.41 853.32 1153.86 854.82 1153.28 856.3 1152.66 857.77 1152 859.22 1151.31 860.65 1150.58 862.07 1149.82 863.46 1149.02 864.84 1148.19 866.19 1147.32 867.53 1146.42 868.84 1145.49 870.12 1144.53 871.38 1143.53 872.62 1142.5 873.83 1141.45 875.02 1140.36 876.18 1139.25 877.31 1138.1 878.41 1136.93 879.48 1135.73 880.52 1134.51 881.53 1133.26 882.51 1131.98 883.46 1130.68 884.38 1129.36 885.26 1128.02 886.11 1126.65 886.93 1125.27 887.71 1123.86 888.45 1122.44 889.16 1121 889.84 1119.54 890.47 1118.06 891.08 1116.57 891.64 1115.06 892.17 1113.54 892.66 1112.01 893.11 1110.47 893.52 1108.92 893.9 1107.35 894.23 1105.78 894.53 1104.2 894.79 1102.61 895 1101.02 895.18 1099.42 895.32 1097.82 895.42 1096.21 895.48 1094.61 895.5 1093 895.48 1091.39 895.42 1089.79 895.32 1088.18 895.18 1086.58 895 1084.98 894.79 1083.39 894.53 1081.8 894.23 1080.22 893.9 1078.65 893.52 1077.08 893.11 1075.53 892.66 1073.99 892.17 1072.46 891.64 1070.94 891.08 1069.43 890.47 1067.94 889.84 1066.46 889.16 1065 888.45 1063.56 887.71 1062.14 886.93 1060.73 886.11 1059.35 885.26 1057.98 884.38 1056.64 883.46 1055.32 882.51 1054.02 881.53 1052.74 880.52 1051.49 879.48 1050.27 878.41 1049.07 877.31 1047.9 876.18 1046.75 875.02 1045.64 873.83 1044.55 872.62 1043.5 871.38 1042.47 870.12 1041.47 868.84 1040.51 867.53 1039.58 866.19 1038.68 864.84 1037.81 863.46 1036.98 862.07 1036.18 860.65 1035.42 859.22 1034.69 857.77 1034 856.3 1033.34 854.82 1032.72 853.32 1032.14 851.81 1031.59 850.28 1031.08 848.74 1030.61 847.19 1030.18 845.63 1029.79 844.07 1029.43 842.49 1029.12 840.91 1028.84 839.32 1028.6 837.72 1028.4 836.12 1028.24 834.52 1028.12 832.91 1028.04 831.3 1028 829.7 1028 828.09 1028.04 826.48 1028.12 824.88 1028.24 823.28 1028.4 821.68 1028.6 820.09 1028.84 818.51 1029.12 816.93 1029.43 815.37 1029.79 813.81 1030.18 812.26 1030.61 810.72 1031.08 809.19 1031.59 807.68 1032.14 806.18 1032.72 804.7 1033.34 803.23 1034 801.78 1034.69 800.35 1035.42 798.93 1036.18 797.54 1036.98 796.16 1037.81 794.81 1038.68 793.47 1039.58 792.16 1040.51 790.88 1041.47 789.62 1042.47 788.38 1043.5 787.17 1044.55 785.98 1045.64 784.82 1046.75 783.69 1047.9 782.59 1049.07 781.52 1050.27 780.48 1051.49 779.47 1052.74 778.49 1054.02 777.54 1055.32 776.62 1056.64 775.74 1057.98 774.89 1059.35 774.07 1060.73 773.29 1062.14 772.55 1063.56 771.84 1065 771.16 1066.46 770.53 1067.94 769.92 1069.43 769.36 1070.94 768.83 1072.46 768.34 1073.99 767.89 1075.53 767.48 1077.08 767.1 1078.65 766.77 1080.22 766.47 1081.8 766.21 1083.39 766 1084.98 765.82 1086.58 765.68 1088.18 765.58 1089.79 765.52 1091.39 765.5 1093" fill="none" stroke-width="0"/><path d="M 622 1128.02 622 1131.19 618.83 1134.36 602.98 1134.36 M 602.98 1131.19 602.98 1137.53 M 602.98 1146.95 602.98 1156.46 606.15 1159.63 612.49 1159.63 615.66 1156.46 615.66 1146.95 M 622 1146.95 602.98 1146.95 M 606.15 1169.05 602.98 1172.22 602.98 1178.56 606.15 1181.73 609.32 1181.73 612.49 1178.56 615.66 1181.73 618.83 1181.73 622 1178.56 622 1172.22 618.83 1169.05 M 612.49 1175.39 612.49 1178.56 M 622 1128.02 618.83 1124.85 M 607.33 1058.18 610.5 1055.01 610.5 1048.67 607.33 1045.5 M 600.99 1051.84 600.99 1055.01 604.16 1058.18 607.33 1058.18 M 600.99 1055.01 597.82 1058.18 594.65 1058.18 591.48 1055.01 591.48 1048.67 594.65 1045.5 M 594.65 1036.08 600.99 1036.08 604.16 1032.91 604.16 1023.4 M 604.16 1029.74 610.5 1036.08 M 610.5 1023.4 591.48 1023.4 591.48 1032.91 594.65 1036.08 M 518.83 1124.85 522 1128.02 522 1131.19 518.83 1134.36 502.98 1134.36 M 502.98 1131.19 502.98 1137.53 M 502.98 1146.95 502.98 1156.46 506.15 1159.63 512.49 1159.63 515.66 1156.46 515.66 1146.95 M 522 1146.95 502.98 1146.95 M 509.32 1169.05 502.98 1175.39 522 1175.39 M 522 1169.05 522 1181.73 M 510.5 1058.18 510.5 1045.5 M 510.5 1051.84 491.48 1051.84 497.82 1045.5 M 494.65 1036.08 500.99 1036.08 504.16 1032.91 504.16 1023.4 M 504.16 1029.74 510.5 1036.08 M 510.5 1023.4 491.48 1023.4 491.48 1032.91 494.65 1036.08 M 418.83 1124.85 422 1128.02 422 1131.19 418.83 1134.36 402.98 1134.36 M 402.98 1131.19 402.98 1137.53 M 402.98 1146.95 402.98 1156.46 406.15 1159.63 412.49 1159.63 415.66 1156.46 415.66 1146.95 M 422 1146.95 402.98 1146.95 M 406.15 1169.05 402.98 1172.22 402.98 1178.56 406.15 1181.73 409.32 1181.73 422 1169.05 422 1181.73 M 410.5 1058.18 410.5 1045.5 397.82 1058.18 394.65 1058.18 391.48 1055.01 391.48 1048.67 394.65 1045.5 M 394.65 1036.08 391.48 1032.91 391.48 1023.4 410.5 1023.4 M 404.16 1023.4 404.16 1032.91 400.99 1036.08 394.65 1036.08 M 404.16 1029.74 410.5 1036.08 M 290.5 922.78 290.5 910.1 M 290.5 916.44 271.48 916.44 277.82 910.1 M 271.48 900.68 271.48 894.34 M 271.48 897.51 287.33 897.51 290.5 894.34 290.5 891.17 287.33 888 M 224.83 765.68 228 762.51 228 756.17 224.83 753 M 218.49 759.34 218.49 762.51 221.66 765.68 224.83 765.68 M 218.49 762.51 215.32 765.68 212.15 765.68 208.98 762.51 208.98 756.17 212.15 753 M 212.15 743.58 208.98 740.41 208.98 734.07 212.15 730.9 224.83 730.9 228 734.07 228 740.41 224.83 743.58 M 273.65 665.68 270.48 662.51 270.48 656.17 273.65 653 M 273.65 643.58 270.48 640.41 270.48 634.07 273.65 630.9 286.33 630.9 289.5 634.07 289.5 640.41 286.33 643.58 M 289.5 653 276.82 665.68 273.65 665.68 M 289.5 665.68 289.5 653 M 289.5 565.68 289.5 553 M 289.5 559.34 270.48 559.34 276.82 553 M 273.65 543.58 270.48 540.41 270.48 534.07 273.65 530.9 286.33 530.9 289.5 534.07 289.5 540.41 286.33 543.58 M 380.5 505.5 630.5 505.5 630.5 105.5 380.5 105.5 380.5 505.5 M 174.99 206.73 174.99 194.05 165.48 203.56 184.5 203.56 M 174.99 184.63 178.16 181.46 178.16 171.95 M 184.5 171.95 165.48 171.95 165.48 181.46 168.65 184.63 174.99 184.63 M 165.48 162.53 165.48 156.19 M 165.48 159.36 181.33 159.36 184.5 156.19 184.5 153.02 181.33 149.85 M 583.48 148.58 599.33 148.58 602.5 145.41 602.5 139.07 599.33 135.9 583.48 135.9 M 589.82 158 583.48 164.34 602.5 164.34 M 602.5 158 602.5 170.68 M 645.5 80.5 645.52 81.13 645.58 81.75 645.68 82.37 645.81 82.99 645.99 83.59 646.2 84.18 646.45 84.76 646.74 85.32 647.06 85.86 647.41 86.38 647.79 86.87 648.21 87.35 648.65 87.79 649.13 88.21 649.62 88.59 650.14 88.94 650.68 89.26 651.24 89.55 651.82 89.8 652.41 90.01 653.01 90.19 653.63 90.32 654.25 90.42 654.87 90.48 655.5 90.5 656.13 90.48 656.75 90.42 657.37 90.32 657.99 90.19 658.59 90.01 659.18 89.8 659.76 89.55 660.32 89.26 660.86 88.94 661.38 88.59 661.87 88.21 662.35 87.79 662.79 87.35 663.21 86.87 663.59 86.38 663.94 85.86 664.26 85.32 664.55 84.76 664.8 84.18 665.01 83.59 665.19 82.99 665.32 82.37 665.42 81.75 665.48 81.13 665.5 80.5 665.48 79.87 665.42 79.25 665.32 78.63 665.19 78.01 665.01 77.41 664.8 76.82 664.55 76.24 664.26 75.68 663.94 75.14 663.59 74.62 663.21 74.13 662.79 73.65 662.35 73.21 661.87 72.79 661.38 72.41 660.86 72.06 660.32 71.74 659.76 71.45 659.18 71.2 658.59 70.99 657.99 70.81 657.37 70.68 656.75 70.58 656.13 70.52 655.5 70.5 654.87 70.52 654.25 70.58 653.63 70.68 653.01 70.81 652.41 70.99 651.82 71.2 651.24 71.45 650.68 71.74 650.14 72.06 649.62 72.41 649.13 72.79 648.65 73.21 648.21 73.65 647.79 74.13 647.41 74.62 647.06 75.14 646.74 75.68 646.45 76.24 646.2 76.82 645.99 77.41 645.81 78.01 645.68 78.63 645.58 79.25 645.52 79.87 645.5 80.5" fill="none" stroke-width="5"/><path d="M 438 763 438 823 M 430.5 880.5 405.5 905.5 380.5 880.5 330.5 880.5 305.5 905.5 305.5 955.5 330.5 980.5 380.5 980.5 405.5 955.5 430.5 980.5 480.5 980.5 505.5 955.5 530.5 980.5 580.5 980.5 605.5 955.5 630.5 980.5 680.5 980.5 705.5 955.5 730.5 980.5 780.5 980.5 805.5 955.5 805.5 905.5 780.5 880.5 730.5 880.5 705.5 905.5 680.5 880.5 630.5 880.5 605.5 905.5 580.5 880.5 530.5 880.5 505.5 905.5 480.5 880.5 430.5 880.5" fill="none" stroke-width="8"/></g><g id="Pj2r8Wo9htyvbVQzJuKR_top_soldermask"><use xlink:href="#SoHYPoj1sygaP0NmOlXm_pad-10" x="334.54" y="580.5"/><use xlink:href="#SoHYPoj1sygaP0NmOlXm_pad-10" x="401.46" y="580.5"/><use xlink:href="#SoHYPoj1sygaP0NmOlXm_pad-10" x="401.46" y="680.5"/><use xlink:href="#SoHYPoj1sygaP0NmOlXm_pad-10" x="334.54" y="680.5"/><use xlink:href="#SoHYPoj1sygaP0NmOlXm_pad-11" x="355.5" y="930.5"/><use xlink:href="#SoHYPoj1sygaP0NmOlXm_pad-11" x="455.5" y="930.5"/><use xlink:href="#SoHYPoj1sygaP0NmOlXm_pad-11" x="555.5" y="930.5"/><use xlink:href="#SoHYPoj1sygaP0NmOlXm_pad-11" x="655.5" y="930.5"/><use xlink:href="#SoHYPoj1sygaP0NmOlXm_pad-11" x="755.5" y="930.5"/><use xlink:href="#SoHYPoj1sygaP0NmOlXm_pad-12" x="655.5" y="1160"/><use xlink:href="#SoHYPoj1sygaP0NmOlXm_pad-12" x="655.5" y="1201"/><use xlink:href="#SoHYPoj1sygaP0NmOlXm_pad-12" x="555.5" y="1201"/><use xlink:href="#SoHYPoj1sygaP0NmOlXm_pad-12" x="555.5" y="1160"/><use xlink:href="#SoHYPoj1sygaP0NmOlXm_pad-12" x="455.5" y="1160"/><use xlink:href="#SoHYPoj1sygaP0NmOlXm_pad-12" x="455.5" y="1201"/><use xlink:href="#SoHYPoj1sygaP0NmOlXm_pad-12" x="218" y="226"/><use xlink:href="#SoHYPoj1sygaP0NmOlXm_pad-12" x="218" y="185"/><path d="M 213 198 213 213 223 213 223 198 213 198 M 213 202.45 223 202.45 M 223 207.43 213 207.43 M 213 212.42 223 212.42 M 450.5 1173 450.5 1188 460.5 1188 460.5 1173 450.5 1173 M 450.5 1174.55 460.5 1174.55 M 460.5 1179.53 450.5 1179.53 M 450.5 1184.52 460.5 1184.52 M 550.5 1184.52 560.5 1184.52 M 560.5 1188 550.5 1188 550.5 1173 560.5 1173 560.5 1188 M 560.5 1179.53 550.5 1179.53 M 550.5 1174.55 560.5 1174.55 M 650.5 1174.55 660.5 1174.55 M 660.5 1173 650.5 1173 650.5 1188 660.5 1188 660.5 1173 M 660.5 1179.53 650.5 1179.53 M 650.5 1184.52 660.5 1184.52" fill="none" stroke-width="5"/><use xlink:href="#SoHYPoj1sygaP0NmOlXm_pad-14" x="655.5" y="1101.46"/><use xlink:href="#SoHYPoj1sygaP0NmOlXm_pad-14" x="655.5" y="1034.54"/><use xlink:href="#SoHYPoj1sygaP0NmOlXm_pad-14" x="555.5" y="1034.54"/><use xlink:href="#SoHYPoj1sygaP0NmOlXm_pad-14" x="555.5" y="1101.46"/><use xlink:href="#SoHYPoj1sygaP0NmOlXm_pad-14" x="455.5" y="1101.46"/><use xlink:href="#SoHYPoj1sygaP0NmOlXm_pad-14" x="455.5" y="1034.54"/><use xlink:href="#SoHYPoj1sygaP0NmOlXm_pad-15" x="320.5" y="480.5"/><use xlink:href="#SoHYPoj1sygaP0NmOlXm_pad-15" x="320.5" y="430.5"/><use xlink:href="#SoHYPoj1sygaP0NmOlXm_pad-15" x="320.5" y="380.5"/><use xlink:href="#SoHYPoj1sygaP0NmOlXm_pad-15" x="320.5" y="330.5"/><use xlink:href="#SoHYPoj1sygaP0NmOlXm_pad-15" x="320.5" y="280.5"/><use xlink:href="#SoHYPoj1sygaP0NmOlXm_pad-15" x="320.5" y="230.5"/><use xlink:href="#SoHYPoj1sygaP0NmOlXm_pad-15" x="320.5" y="180.5"/><use xlink:href="#SoHYPoj1sygaP0NmOlXm_pad-15" x="320.5" y="130.5"/><use xlink:href="#SoHYPoj1sygaP0NmOlXm_pad-15" x="690.5" y="130.5"/><use xlink:href="#SoHYPoj1sygaP0NmOlXm_pad-15" x="690.5" y="180.5"/><use xlink:href="#SoHYPoj1sygaP0NmOlXm_pad-15" x="690.5" y="230.5"/><use xlink:href="#SoHYPoj1sygaP0NmOlXm_pad-15" x="690.5" y="280.5"/><use xlink:href="#SoHYPoj1sygaP0NmOlXm_pad-15" x="690.5" y="330.5"/><use xlink:href="#SoHYPoj1sygaP0NmOlXm_pad-15" x="690.5" y="380.5"/><use xlink:href="#SoHYPoj1sygaP0NmOlXm_pad-15" x="690.5" y="430.5"/><use xlink:href="#SoHYPoj1sygaP0NmOlXm_pad-15" x="690.5" y="480.5"/><use xlink:href="#SoHYPoj1sygaP0NmOlXm_pad-16" x="830.5" y="1093"/><use xlink:href="#SoHYPoj1sygaP0NmOlXm_pad-16" x="205.5" y="1093"/><use xlink:href="#SoHYPoj1sygaP0NmOlXm_pad-17" x="287.88" y="793"/><use xlink:href="#SoHYPoj1sygaP0NmOlXm_pad-17" x="398.12" y="793"/><use xlink:href="#SoHYPoj1sygaP0NmOlXm_pad-18" x="218" y="680.5"/><use xlink:href="#SoHYPoj1sygaP0NmOlXm_pad-18" x="218" y="580.5"/><use xlink:href="#SoHYPoj1sygaP0NmOlXm_pad-18" x="218" y="430.5"/><use xlink:href="#SoHYPoj1sygaP0NmOlXm_pad-18" x="193" y="793"/></g><g id="Pj2r8Wo9htyvbVQzJuKR_top_copper"><use xlink:href="#jFfbUCjRCprYlE1g8kBb_pad-10" x="334.54" y="580.5"/><use xlink:href="#jFfbUCjRCprYlE1g8kBb_pad-10" x="401.46" y="580.5"/><use xlink:href="#jFfbUCjRCprYlE1g8kBb_pad-10" x="401.46" y="680.5"/><use xlink:href="#jFfbUCjRCprYlE1g8kBb_pad-10" x="334.54" y="680.5"/><use xlink:href="#jFfbUCjRCprYlE1g8kBb_pad-11" x="355.5" y="930.5"/><use xlink:href="#jFfbUCjRCprYlE1g8kBb_pad-11" x="455.5" y="930.5"/><use xlink:href="#jFfbUCjRCprYlE1g8kBb_pad-11" x="555.5" y="930.5"/><use xlink:href="#jFfbUCjRCprYlE1g8kBb_pad-11" x="655.5" y="930.5"/><use xlink:href="#jFfbUCjRCprYlE1g8kBb_pad-11" x="755.5" y="930.5"/><use xlink:href="#jFfbUCjRCprYlE1g8kBb_pad-12" x="655.5" y="1160"/><use xlink:href="#jFfbUCjRCprYlE1g8kBb_pad-12" x="655.5" y="1201"/><use xlink:href="#jFfbUCjRCprYlE1g8kBb_pad-12" x="555.5" y="1201"/><use xlink:href="#jFfbUCjRCprYlE1g8kBb_pad-12" x="555.5" y="1160"/><use xlink:href="#jFfbUCjRCprYlE1g8kBb_pad-12" x="455.5" y="1160"/><use xlink:href="#jFfbUCjRCprYlE1g8kBb_pad-12" x="455.5" y="1201"/><use xlink:href="#jFfbUCjRCprYlE1g8kBb_pad-12" x="218" y="226"/><use xlink:href="#jFfbUCjRCprYlE1g8kBb_pad-12" x="218" y="185"/><path d="M 213 198.25 213 233 223 233 223 198.25 213 198.25 M 213 198.46 223 198.46 M 223 198.95 213 198.95 M 213 199.43 223 199.43 M 223 199.92 213 199.92 M 213 200.4 223 200.4 M 223 200.89 213 200.89 M 213 201.37 223 201.37 M 223 201.86 213 201.86 M 213 202.34 223 202.34 M 223 202.83 213 202.83 M 213 203.31 223 203.31 M 223 203.8 213 203.8 M 213 204.28 223 204.28 M 223 204.77 213 204.77 M 213 205.25 223 205.25 M 223 205.74 213 205.74 M 213 206.22 223 206.22 M 223 206.71 213 206.71 M 213 207.19 223 207.19 M 223 207.68 213 207.68 M 213 208.16 223 208.16 M 223 208.65 213 208.65 M 213 209.13 223 209.13 M 223 209.62 213 209.62 M 213 210.1 223 210.1 M 223 210.59 213 210.59 M 213 211.08 223 211.08 M 223 211.56 213 211.56 M 213 212.05 223 212.05 M 223 212.53 213 212.53 M 213 213.02 223 213.02 M 223 213.5 213 213.5 M 213 213.99 223 213.99 M 223 214.47 213 214.47 M 213 214.96 223 214.96 M 223 215.44 213 215.44 M 213 215.93 223 215.93 M 223 216.41 213 216.41 M 213 216.9 223 216.9 M 223 217.38 213 217.38 M 213 217.87 223 217.87 M 223 218.35 213 218.35 M 213 218.84 223 218.84 M 223 219.32 213 219.32 M 213 219.81 223 219.81 M 223 220.29 213 220.29 M 213 220.78 223 220.78 M 223 221.26 213 221.26 M 213 221.75 223 221.75 M 223 222.23 213 222.23 M 213 222.72 223 222.72 M 223 223.2 213 223.2 M 213 223.69 223 223.69 M 223 224.17 213 224.17 M 213 224.66 223 224.66 M 223 225.14 213 225.14 M 213 225.63 223 225.63 M 223 226.11 213 226.11 M 213 226.6 223 226.6 M 223 227.08 213 227.08 M 213 227.57 223 227.57 M 223 228.05 213 228.05 M 213 228.54 223 228.54 M 223 229.02 213 229.02 M 213 229.51 223 229.51 M 223 229.99 213 229.99 M 213 230.48 223 230.48 M 223 230.96 213 230.96 M 213 231.45 223 231.45 M 223 231.93 213 231.93 M 213 232.42 223 232.42 M 223 232.91 213 232.91 M 450.5 1173.25 450.5 1208 460.5 1208 460.5 1173.25 450.5 1173.25 M 450.5 1173.54 460.5 1173.54 M 460.5 1174.02 450.5 1174.02 M 450.5 1174.51 460.5 1174.51 M 460.5 1174.99 450.5 1174.99 M 450.5 1175.48 460.5 1175.48 M 460.5 1175.97 450.5 1175.97 M 450.5 1176.45 460.5 1176.45 M 460.5 1176.94 450.5 1176.94 M 450.5 1177.42 460.5 1177.42 M 460.5 1177.91 450.5 1177.91 M 450.5 1178.39 460.5 1178.39 M 460.5 1178.88 450.5 1178.88 M 450.5 1179.36 460.5 1179.36 M 460.5 1179.85 450.5 1179.85 M 450.5 1180.33 460.5 1180.33 M 460.5 1180.82 450.5 1180.82 M 450.5 1181.3 460.5 1181.3 M 460.5 1181.79 450.5 1181.79 M 450.5 1182.27 460.5 1182.27 M 460.5 1182.76 450.5 1182.76 M 450.5 1183.24 460.5 1183.24 M 460.5 1183.73 450.5 1183.73 M 450.5 1184.21 460.5 1184.21 M 460.5 1184.7 450.5 1184.7 M 450.5 1185.18 460.5 1185.18 M 460.5 1185.67 450.5 1185.67 M 450.5 1186.15 460.5 1186.15 M 460.5 1186.64 450.5 1186.64 M 450.5 1187.12 460.5 1187.12 M 460.5 1187.61 450.5 1187.61 M 450.5 1188.09 460.5 1188.09 M 460.5 1188.58 450.5 1188.58 M 450.5 1189.06 460.5 1189.06 M 460.5 1189.55 450.5 1189.55 M 450.5 1190.03 460.5 1190.03 M 460.5 1190.52 450.5 1190.52 M 450.5 1191 460.5 1191 M 460.5 1191.49 450.5 1191.49 M 450.5 1191.97 460.5 1191.97 M 460.5 1192.46 450.5 1192.46 M 450.5 1192.94 460.5 1192.94 M 460.5 1193.43 450.5 1193.43 M 450.5 1193.91 460.5 1193.91 M 460.5 1194.4 450.5 1194.4 M 450.5 1194.88 460.5 1194.88 M 460.5 1195.37 450.5 1195.37 M 450.5 1195.85 460.5 1195.85 M 460.5 1196.34 450.5 1196.34 M 450.5 1196.83 460.5 1196.83 M 460.5 1197.31 450.5 1197.31 M 450.5 1197.8 460.5 1197.8 M 460.5 1198.28 450.5 1198.28 M 450.5 1198.77 460.5 1198.77 M 460.5 1199.25 450.5 1199.25 M 450.5 1199.74 460.5 1199.74 M 460.5 1200.22 450.5 1200.22 M 450.5 1200.71 460.5 1200.71 M 460.5 1201.19 450.5 1201.19 M 450.5 1201.68 460.5 1201.68 M 460.5 1202.16 450.5 1202.16 M 450.5 1202.65 460.5 1202.65 M 460.5 1203.13 450.5 1203.13 M 450.5 1203.62 460.5 1203.62 M 460.5 1204.1 450.5 1204.1 M 450.5 1204.59 460.5 1204.59 M 460.5 1205.07 450.5 1205.07 M 450.5 1205.56 460.5 1205.56 M 460.5 1206.04 450.5 1206.04 M 450.5 1206.53 460.5 1206.53 M 460.5 1207.01 450.5 1207.01 M 450.5 1207.5 460.5 1207.5 M 460.5 1207.98 450.5 1207.98 M 550.5 1208 550.5 1173.25 560.5 1173.25 560.5 1208 550.5 1208 M 550.5 1207.98 560.5 1207.98 M 560.5 1207.5 550.5 1207.5 M 550.5 1207.01 560.5 1207.01 M 560.5 1206.53 550.5 1206.53 M 550.5 1206.04 560.5 1206.04 M 560.5 1205.56 550.5 1205.56 M 550.5 1205.07 560.5 1205.07 M 560.5 1204.59 550.5 1204.59 M 550.5 1204.1 560.5 1204.1 M 560.5 1203.62 550.5 1203.62 M 550.5 1203.13 560.5 1203.13 M 560.5 1202.65 550.5 1202.65 M 550.5 1202.16 560.5 1202.16 M 560.5 1201.68 550.5 1201.68 M 550.5 1201.19 560.5 1201.19 M 560.5 1200.71 550.5 1200.71 M 550.5 1200.22 560.5 1200.22 M 560.5 1199.74 550.5 1199.74 M 550.5 1199.25 560.5 1199.25 M 560.5 1198.77 550.5 1198.77 M 550.5 1198.28 560.5 1198.28 M 560.5 1197.8 550.5 1197.8 M 550.5 1197.31 560.5 1197.31 M 560.5 1196.83 550.5 1196.83 M 550.5 1196.34 560.5 1196.34 M 560.5 1195.85 550.5 1195.85 M 550.5 1195.37 560.5 1195.37 M 560.5 1194.88 550.5 1194.88 M 550.5 1194.4 560.5 1194.4 M 560.5 1193.91 550.5 1193.91 M 550.5 1193.43 560.5 1193.43 M 560.5 1192.94 550.5 1192.94 M 550.5 1192.46 560.5 1192.46 M 560.5 1191.97 550.5 1191.97 M 550.5 1191.49 560.5 1191.49 M 560.5 1191 550.5 1191 M 550.5 1190.52 560.5 1190.52 M 560.5 1190.03 550.5 1190.03 M 550.5 1189.55 560.5 1189.55 M 560.5 1189.06 550.5 1189.06 M 550.5 1188.58 560.5 1188.58 M 560.5 1188.09 550.5 1188.09 M 550.5 1187.61 560.5 1187.61 M 560.5 1187.12 550.5 1187.12 M 550.5 1186.64 560.5 1186.64 M 560.5 1186.15 550.5 1186.15 M 550.5 1185.67 560.5 1185.67 M 560.5 1185.18 550.5 1185.18 M 550.5 1184.7 560.5 1184.7 M 560.5 1184.21 550.5 1184.21 M 550.5 1183.73 560.5 1183.73 M 560.5 1183.24 550.5 1183.24 M 550.5 1182.76 560.5 1182.76 M 560.5 1182.27 550.5 1182.27 M 550.5 1181.79 560.5 1181.79 M 560.5 1181.3 550.5 1181.3 M 550.5 1180.82 560.5 1180.82 M 560.5 1180.33 550.5 1180.33 M 550.5 1179.85 560.5 1179.85 M 560.5 1179.36 550.5 1179.36 M 550.5 1178.88 560.5 1178.88 M 560.5 1178.39 550.5 1178.39 M 550.5 1177.91 560.5 1177.91 M 560.5 1177.42 550.5 1177.42 M 550.5 1176.94 560.5 1176.94 M 560.5 1176.45 550.5 1176.45 M 550.5 1175.97 560.5 1175.97 M 560.5 1175.48 550.5 1175.48 M 550.5 1174.99 560.5 1174.99 M 560.5 1174.51 550.5 1174.51 M 550.5 1174.02 560.5 1174.02 M 560.5 1173.54 550.5 1173.54 M 650.5 1173.54 660.5 1173.54 M 660.5 1173.25 650.5 1173.25 650.5 1208 660.5 1208 660.5 1173.25 M 660.5 1174.02 650.5 1174.02 M 650.5 1174.51 660.5 1174.51 M 660.5 1174.99 650.5 1174.99 M 650.5 1175.48 660.5 1175.48 M 660.5 1175.97 650.5 1175.97 M 650.5 1176.45 660.5 1176.45 M 660.5 1176.94 650.5 1176.94 M 650.5 1177.42 660.5 1177.42 M 660.5 1177.91 650.5 1177.91 M 650.5 1178.39 660.5 1178.39 M 660.5 1178.88 650.5 1178.88 M 650.5 1179.36 660.5 1179.36 M 660.5 1179.85 650.5 1179.85 M 650.5 1180.33 660.5 1180.33 M 660.5 1180.82 650.5 1180.82 M 650.5 1181.3 660.5 1181.3 M 660.5 1181.79 650.5 1181.79 M 650.5 1182.27 660.5 1182.27 M 660.5 1182.76 650.5 1182.76 M 650.5 1183.24 660.5 1183.24 M 660.5 1183.73 650.5 1183.73 M 650.5 1184.21 660.5 1184.21 M 660.5 1184.7 650.5 1184.7 M 650.5 1185.18 660.5 1185.18 M 660.5 1185.67 650.5 1185.67 M 650.5 1186.15 660.5 1186.15 M 660.5 1186.64 650.5 1186.64 M 650.5 1187.12 660.5 1187.12 M 660.5 1187.61 650.5 1187.61 M 650.5 1188.09 660.5 1188.09 M 660.5 1188.58 650.5 1188.58 M 650.5 1189.06 660.5 1189.06 M 660.5 1189.55 650.5 1189.55 M 650.5 1190.03 660.5 1190.03 M 660.5 1190.52 650.5 1190.52 M 650.5 1191 660.5 1191 M 660.5 1191.49 650.5 1191.49 M 650.5 1191.97 660.5 1191.97 M 660.5 1192.46 650.5 1192.46 M 650.5 1192.94 660.5 1192.94 M 660.5 1193.43 650.5 1193.43 M 650.5 1193.91 660.5 1193.91 M 660.5 1194.4 650.5 1194.4 M 650.5 1194.88 660.5 1194.88 M 660.5 1195.37 650.5 1195.37 M 650.5 1195.85 660.5 1195.85 M 660.5 1196.34 650.5 1196.34 M 650.5 1196.83 660.5 1196.83 M 660.5 1197.31 650.5 1197.31 M 650.5 1197.8 660.5 1197.8 M 660.5 1198.28 650.5 1198.28 M 650.5 1198.77 660.5 1198.77 M 660.5 1199.25 650.5 1199.25 M 650.5 1199.74 660.5 1199.74 M 660.5 1200.22 650.5 1200.22 M 650.5 1200.71 660.5 1200.71 M 660.5 1201.19 650.5 1201.19 M 650.5 1201.68 660.5 1201.68 M 660.5 1202.16 650.5 1202.16 M 650.5 1202.65 660.5 1202.65 M 660.5 1203.13 650.5 1203.13 M 650.5 1203.62 660.5 1203.62 M 660.5 1204.1 650.5 1204.1 M 650.5 1204.59 660.5 1204.59 M 660.5 1205.07 650.5 1205.07 M 650.5 1205.56 660.5 1205.56 M 660.5 1206.04 650.5 1206.04 M 650.5 1206.53 660.5 1206.53 M 660.5 1207.01 650.5 1207.01 M 650.5 1207.5 660.5 1207.5 M 660.5 1207.98 650.5 1207.98" fill="none" stroke-width="0.5"/><use xlink:href="#jFfbUCjRCprYlE1g8kBb_pad-14" x="655.5" y="1101.46"/><use xlink:href="#jFfbUCjRCprYlE1g8kBb_pad-14" x="655.5" y="1034.54"/><use xlink:href="#jFfbUCjRCprYlE1g8kBb_pad-14" x="555.5" y="1034.54"/><use xlink:href="#jFfbUCjRCprYlE1g8kBb_pad-14" x="555.5" y="1101.46"/><use xlink:href="#jFfbUCjRCprYlE1g8kBb_pad-14" x="455.5" y="1101.46"/><use xlink:href="#jFfbUCjRCprYlE1g8kBb_pad-14" x="455.5" y="1034.54"/><use xlink:href="#jFfbUCjRCprYlE1g8kBb_pad-15" x="320.5" y="480.5"/><use xlink:href="#jFfbUCjRCprYlE1g8kBb_pad-15" x="320.5" y="430.5"/><use xlink:href="#jFfbUCjRCprYlE1g8kBb_pad-15" x="320.5" y="380.5"/><use xlink:href="#jFfbUCjRCprYlE1g8kBb_pad-15" x="320.5" y="330.5"/><use xlink:href="#jFfbUCjRCprYlE1g8kBb_pad-15" x="320.5" y="280.5"/><use xlink:href="#jFfbUCjRCprYlE1g8kBb_pad-15" x="320.5" y="230.5"/><use xlink:href="#jFfbUCjRCprYlE1g8kBb_pad-15" x="320.5" y="180.5"/><use xlink:href="#jFfbUCjRCprYlE1g8kBb_pad-15" x="320.5" y="130.5"/><use xlink:href="#jFfbUCjRCprYlE1g8kBb_pad-15" x="690.5" y="130.5"/><use xlink:href="#jFfbUCjRCprYlE1g8kBb_pad-15" x="690.5" y="180.5"/><use xlink:href="#jFfbUCjRCprYlE1g8kBb_pad-15" x="690.5" y="230.5"/><use xlink:href="#jFfbUCjRCprYlE1g8kBb_pad-15" x="690.5" y="280.5"/><use xlink:href="#jFfbUCjRCprYlE1g8kBb_pad-15" x="690.5" y="330.5"/><use xlink:href="#jFfbUCjRCprYlE1g8kBb_pad-15" x="690.5" y="380.5"/><use xlink:href="#jFfbUCjRCprYlE1g8kBb_pad-15" x="690.5" y="430.5"/><use xlink:href="#jFfbUCjRCprYlE1g8kBb_pad-15" x="690.5" y="480.5"/><use xlink:href="#jFfbUCjRCprYlE1g8kBb_pad-16" x="398.12" y="793"/><use xlink:href="#jFfbUCjRCprYlE1g8kBb_pad-16" x="287.88" y="793"/><path d="M 693.73 722.29 693.73 688.71 738.19 684.19 741.11 674.14 745.11 664.47 750.16 655.3 721.92 620.67 745.67 596.92 780.3 625.16 789.47 620.11 799.14 616.11 809.19 613.19 813.71 568.73 847.29 568.73 851.81 613.19 861.86 616.11 871.53 620.11 880.7 625.16 915.33 596.92 939.08 620.67 910.84 655.3 914.72 662.12 918.02 669.24 870.28 689.02 866.96 682.59 862.61 676.8 857.35 671.83 851.33 667.81 844.72 664.85 837.71 663.05 830.5 662.44 822.46 663.19 814.7 665.44 807.5 669.09 801.11 674.03 795.75 680.07 791.61 687 788.84 694.59 787.54 702.56 787.74 710.63 789.46 718.53 792.61 725.96 797.1 732.67 802.76 738.43 809.39 743.03 816.77 746.31 824.63 748.16 832.7 748.5 840.69 747.34 848.33 744.7 855.33 740.68 861.46 735.43 866.51 729.12 870.28 721.98 918.02 741.76 914.72 748.88 910.84 755.7 939.08 790.33 915.33 814.08 880.7 785.84 871.53 790.89 861.86 794.89 851.81 797.81 847.29 842.27 813.71 842.27 809.19 797.81 799.14 794.89 789.47 790.89 780.3 785.84 745.67 814.08 721.92 790.33 750.16 755.7 745.11 746.53 741.11 736.86 738.19 726.81 693.73 722.29 M 693.73 718.98 789.65 718.98 M 788.28 713.09 693.73 713.09 M 693.73 707.2 787.66 707.2 M 787.74 701.31 693.73 701.31 M 693.73 695.42 788.71 695.42 M 790.69 689.53 693.73 689.53 M 719.15 724.88 792.15 724.88 M 795.82 730.77 739.34 730.77 M 741.05 736.66 801.01 736.66 M 808.69 742.55 743.46 742.55 M 746.16 748.44 831.13 748.44 M 833.16 748.44 914.93 748.44 M 917.66 742.55 852.08 742.55 M 860.03 736.66 905.71 736.66 M 891.49 730.77 865.19 730.77 M 868.75 724.88 877.27 724.88 M 883.27 683.64 867.5 683.64 M 863.32 677.75 897.49 677.75 M 911.71 671.86 857.38 671.86 M 847.22 665.97 916.51 665.97 M 913.56 660.08 747.53 660.08 M 749.25 654.19 911.75 654.19 M 916.55 648.3 744.45 648.3 M 739.64 642.41 921.36 642.41 M 926.16 636.52 734.84 636.52 M 730.04 630.62 930.96 630.62 M 935.76 624.73 881.22 624.73 M 879.93 624.73 781.07 624.73 M 779.78 624.73 725.24 624.73 M 723.74 618.84 772.56 618.84 M 765.33 612.95 729.63 612.95 M 735.52 607.06 758.11 607.06 M 750.88 601.17 741.41 601.17 M 792.53 618.84 868.47 618.84 M 851.79 612.95 809.21 612.95 M 809.81 607.06 851.19 607.06 M 850.59 601.17 810.41 601.17 M 811.01 595.28 849.99 595.28 M 849.39 589.39 811.61 589.39 M 812.21 583.5 848.79 583.5 M 848.19 577.61 812.81 577.61 M 813.41 571.72 847.59 571.72 M 888.44 618.84 937.26 618.84 M 931.37 612.95 895.67 612.95 M 902.89 607.06 925.48 607.06 M 919.59 601.17 910.12 601.17 M 813.66 665.97 744.49 665.97 M 742.05 671.86 803.92 671.86 M 797.81 677.75 740.06 677.75 M 738.35 683.64 793.62 683.64 M 749.4 754.33 911.62 754.33 M 914.53 760.22 746.47 760.22 M 741.67 766.11 919.33 766.11 M 924.13 772 736.87 772 M 732.06 777.89 928.94 777.89 M 933.74 783.78 727.26 783.78 M 722.46 789.67 775.6 789.67 M 768.38 795.56 727.15 795.56 M 733.04 801.45 761.15 801.45 M 753.93 807.34 738.93 807.34 M 744.82 813.23 746.71 813.23 M 787.26 789.67 873.74 789.67 M 885.4 789.67 938.54 789.67 M 933.85 795.56 892.62 795.56 M 899.85 801.45 927.96 801.45 M 922.07 807.34 907.07 807.34 M 914.29 813.23 916.18 813.23 M 859.56 795.56 801.45 795.56 M 809.56 801.45 851.44 801.45 M 850.84 807.34 810.16 807.34 M 810.76 813.23 850.24 813.23 M 849.64 819.13 811.36 819.13 M 811.95 825.02 849.05 825.02 M 848.45 830.91 812.55 830.91 M 813.15 836.8 847.85 836.8" fill="none" stroke-width="5.91"/><path d="M 655.5 930.5 655.5 1030.5 M 655.5 1118 655.5 1193 M 655.5 1201 555.5 1201 455.5 1201 388.5 1201 355.5 1168 355.5 930.5 405.5 880.5 405.5 793 398.12 793 M 405.5 793 405.5 680.5 401.46 680.5 M 405.5 680.5 405.5 580.5 401.46 580.5 M 405.5 580.5 405.5 405.5 380.5 380.5 318 380.5 M 320.5 430.5 218 430.5 M 218 580.5 334.54 580.5 M 334.54 680.5 218 680.5 M 193 793 287.88 793 M 455.5 918 505.5 868 505.5 355.5 580.5 280.5 655.5 280.5 M 655.5 330.5 605.5 330.5 555.5 380.5 555.5 930.5 555.5 1030.5 M 555.5 1118 555.5 1193 M 455.5 1193 455.5 1118 M 455.5 1018 455.5 930.5 455.5 918 M 605.5 880.5 605.5 405.5 630.5 380.5 655.5 380.5 M 320.5 280.5 243 280.5 218 255.5 218 226 M 218 185 218 155.5 243 130.5 320.5 130.5 M 605.5 880.5 655.5 930.5" fill="none" stroke-width="16"/><use xlink:href="#jFfbUCjRCprYlE1g8kBb_pad-19" x="218" y="680.5"/><use xlink:href="#jFfbUCjRCprYlE1g8kBb_pad-19" x="218" y="580.5"/><use xlink:href="#jFfbUCjRCprYlE1g8kBb_pad-19" x="218" y="430.5"/><use xlink:href="#jFfbUCjRCprYlE1g8kBb_pad-19" x="193" y="793"/></g><mask id="Pj2r8Wo9htyvbVQzJuKR_top_mech-mask"><g fill="#000" stroke="#000"><rect x="18" y="18" width="1000" height="1250" fill="#fff"/></g></mask><mask id="Pj2r8Wo9htyvbVQzJuKR_top_cf-mask"><g fill="#fff" stroke="#fff"><use xlink:href="#Pj2r8Wo9htyvbVQzJuKR_top_soldermask"/></g></mask><mask id="Pj2r8Wo9htyvbVQzJuKR_top_sm-mask"><g fill="#000" stroke="#000"><rect x="18" y="18" width="1000" height="1250" fill="#fff"/><use xlink:href="#Pj2r8Wo9htyvbVQzJuKR_top_soldermask"/></g></mask></defs><g transform="translate(0,1286) scale(1,-1)"><g mask="url(#Pj2r8Wo9htyvbVQzJuKR_top_mech-mask)"><rect x="18" y="18" width="1000" height="1250" fill="currentColor" class="Pj2r8Wo9htyvbVQzJuKR_fr4"/><use xlink:href="#Pj2r8Wo9htyvbVQzJuKR_top_copper" fill="currentColor" stroke="currentColor" class="Pj2r8Wo9htyvbVQzJuKR_cu"/><use xlink:href="#Pj2r8Wo9htyvbVQzJuKR_top_copper" fill="currentColor" stroke="currentColor" class="Pj2r8Wo9htyvbVQzJuKR_cf" mask="url(#Pj2r8Wo9htyvbVQzJuKR_top_cf-mask)"/><g mask="url(#Pj2r8Wo9htyvbVQzJuKR_top_sm-mask)"><rect x="18" y="18" width="1000" height="1250" fill="currentColor" class="Pj2r8Wo9htyvbVQzJuKR_sm"/><use xlink:href="#Pj2r8Wo9htyvbVQzJuKR_top_silkscreen" fill="currentColor" stroke="currentColor" class="Pj2r8Wo9htyvbVQzJuKR_ss"/></g></g></g></svg>